<?xml version="1.0" encoding="UTF-8" standalone="no"?>
<!-- Created with Inkscape (http://www.inkscape.org/) -->

<svg
   xmlns:dc="http://purl.org/dc/elements/1.1/"
   xmlns:cc="http://creativecommons.org/ns#"
   xmlns:rdf="http://www.w3.org/1999/02/22-rdf-syntax-ns#"
   xmlns:svg="http://www.w3.org/2000/svg"
   xmlns="http://www.w3.org/2000/svg"
   xmlns:sodipodi="http://sodipodi.sourceforge.net/DTD/sodipodi-0.dtd"
   xmlns:inkscape="http://www.inkscape.org/namespaces/inkscape"
   width="512"
   height="64"
   id="svg7830"
   version="1.1"
   inkscape:version="0.48.5 r10040"
   sodipodi:docname="SeaCreep.svg"
   inkscape:export-filename="C:\xampp\htdocs\EsmeG-awesomenauts\data\img\SeaCreep.png"
   inkscape:export-xdpi="90"
   inkscape:export-ydpi="90">
  <defs
     id="defs7832" />
  <sodipodi:namedview
     id="base"
     pagecolor="#ffffff"
     bordercolor="#666666"
     borderopacity="1.0"
     inkscape:pageopacity="0.0"
     inkscape:pageshadow="2"
     inkscape:zoom="1.4"
     inkscape:cx="26.622978"
     inkscape:cy="28.683943"
     inkscape:document-units="px"
     inkscape:current-layer="layer1"
     showgrid="true"
     showguides="true"
     inkscape:guide-bbox="true"
     objecttolerance="1"
     gridtolerance="1"
     guidetolerance="1"
     inkscape:window-width="1366"
     inkscape:window-height="706"
     inkscape:window-x="-8"
     inkscape:window-y="-8"
     inkscape:window-maximized="1">
    <inkscape:grid
       type="xygrid"
       id="grid7838"
       empspacing="5"
       visible="true"
       enabled="true"
       snapvisiblegridlinesonly="true" />
  </sodipodi:namedview>
  <metadata
     id="metadata7835">
    <rdf:RDF>
      <cc:Work
         rdf:about="">
        <dc:format>image/svg+xml</dc:format>
        <dc:type
           rdf:resource="http://purl.org/dc/dcmitype/StillImage" />
        <dc:title></dc:title>
      </cc:Work>
    </rdf:RDF>
  </metadata>
  <g
     inkscape:label="Layer 1"
     inkscape:groupmode="layer"
     id="layer1"
     transform="translate(0,-988.36218)"
     style="opacity:1">
    <g
       id="g8007"
       transform="translate(264.57742,-5.8385197)">
      <g
         transform="translate(2.692085,-0.96352)"
         style="fill:#00d400"
         id="g7968">
        <path
           style="opacity:0.98009997;fill:#00d400;fill-opacity:1;fill-rule:nonzero;stroke:none"
           d="m 26.239923,1038.1214 c 0.147577,4.2942 4.542323,7.8199 5.635734,7.7823 1.093412,-0.038 -2.583433,-3.0775 -2.730997,-7.3714 -0.147578,-4.2943 3.289995,-8.2167 2.196582,-8.1792 -1.09341,0.038 -5.248883,3.4744 -5.101319,7.7683 z"
           id="path3928-8-6-1-5-2"
           inkscape:connector-curvature="0"
           sodipodi:nodetypes="sssss" />
        <path
           sodipodi:nodetypes="ssssss"
           inkscape:connector-curvature="0"
           id="path3923-8-5-9-3-0"
           d="m 18.841175,1045.9932 c 0.438534,1.5728 6.062624,1.0093 8.603913,0.922 2.541287,-0.087 4.748093,0.7163 4.692029,-0.915 -0.05606,-1.6314 0.06639,-4.9915 -2.137121,-3.638 -2.258073,1.3869 -0.984202,-1.6316 -3.527554,-0.5005 -2.377317,1.0573 -7.829524,3.4203 -7.631267,4.1315 z"
           style="opacity:0.98009997;fill:#00d400;fill-opacity:1;fill-rule:nonzero;stroke:none" />
        <path
           style="opacity:0.98999999;fill:#00d400;fill-opacity:1;fill-rule:nonzero;stroke:none"
           d="m 37.717239,1038.5582 c 0.35741,4.3183 4.896877,7.8183 5.981392,7.7689 1.084517,-0.049 -2.717836,-3.0685 -3.075215,-7.3864 -0.357411,-4.3183 2.865459,-8.3007 1.780941,-8.2513 -1.084515,0.049 -5.044498,3.5509 -4.687118,7.8688 z"
           id="path3993-4-9-2-8-7"
           inkscape:connector-curvature="0"
           sodipodi:nodetypes="sssss" />
        <path
           sodipodi:nodetypes="ssssss"
           inkscape:connector-curvature="0"
           id="path3995-5-0-9-2-2"
           d="m 30.752589,1046.5556 c 0.512911,1.5776 6.073074,0.9509 8.593689,0.836 2.520613,-0.1148 4.75264,0.6702 4.616861,-0.9703 -0.135779,-1.6405 -0.179045,-5.0219 -2.301912,-3.637 -2.175435,1.4192 -1.057944,-1.6308 -3.529373,-0.4659 -2.310089,1.0889 -7.611149,3.524 -7.379265,4.2372 z"
           style="opacity:0.98999999;fill:#00d400;fill-opacity:1;fill-rule:nonzero;stroke:none" />
      </g>
      <path
         style="fill:#00d400;fill-rule:evenodd;stroke:none"
         d="m 54.670137,1006.7676 c -12.848939,-3.7999 -21.555781,1.2223 -32.333671,1.8334 l -0.498455,21.4958 c 9.445548,1.4721 20.812677,8.3483 30.667518,4.549 -0.929451,-5.2643 -4.46916,-12.3632 2.164608,-27.8782 z"
         id="path6573"
         inkscape:connector-curvature="0"
         sodipodi:nodetypes="ccccc" />
      <path
         style="fill:#00d400;fill-opacity:1;fill-rule:nonzero;stroke:none"
         d="m 19.784866,1015.1336 c 1.146122,1.1463 5.427188,-6.8054 6.129957,-8.1549 0.770948,-1.4804 5.310218,-3.374 4.514615,-3.2634 -4.453506,0.6188 -6.617312,3.6597 -7.867223,4.8223 -1.249912,1.1625 -4.055949,5.3172 -2.777349,6.596 z"
         id="path6575"
         inkscape:connector-curvature="0"
         sodipodi:nodetypes="sssss" />
      <path
         sodipodi:nodetypes="sssss"
         inkscape:connector-curvature="0"
         id="path6577"
         d="m 22.356262,1015.0996 c 1.146122,1.1462 5.427189,-6.8054 6.129958,-8.155 0.770948,-1.4804 5.310217,-3.3739 4.514615,-3.2634 -4.453507,0.6188 -6.617312,3.6598 -7.867224,4.8223 -1.249912,1.1626 -4.055948,5.3172 -2.777349,6.5961 z"
         style="fill:#00d400;fill-opacity:1;fill-rule:nonzero;stroke:none" />
      <path
         style="fill:#005500;fill-rule:evenodd;stroke:none"
         d="m 22.835774,1007.8719 -5.511801,8.597 -13.9914772,3.0729 19.3289932,0.5119 z"
         id="path6579"
         inkscape:connector-curvature="0"
         sodipodi:nodetypes="ccccc" />
      <path
         style="fill:#00d400;fill-opacity:1;fill-rule:nonzero;stroke:none"
         d="m 21.439096,1028.105 c 0.374185,0.2854 1.580258,2.9952 2.539581,3.4532 1.158648,0.5531 14.615103,8.653 15.048566,9.0658 0.812515,0.7737 -11.357828,-9.5991 -12.84197,-10.5225 -0.646805,-0.4025 -5.519312,-2.5864 -4.746177,-1.9965 z"
         id="path6581"
         inkscape:connector-curvature="0"
         sodipodi:nodetypes="sssss" />
      <path
         sodipodi:nodetypes="sssss"
         inkscape:connector-curvature="0"
         id="path6583"
         d="m 22.432712,1027.4779 c 0.358736,0.2346 1.77611,2.759 2.655873,3.0898 1.062537,0.3995 13.647313,6.6948 14.074859,7.0476 0.801412,0.6613 -11.025138,-8.0431 -12.417527,-8.7672 -0.606827,-0.3155 -5.054418,-1.8549 -4.313205,-1.3702 z"
         style="fill:#00d400;fill-opacity:1;fill-rule:nonzero;stroke:none" />
      <path
         style="fill:#80ff80;fill-rule:evenodd;stroke:none"
         d="m 22.541547,1019.8546 -19.7058361,-0.1768 13.8974031,4.2749 5.415169,6.4189 z"
         id="path6585"
         inkscape:connector-curvature="0"
         sodipodi:nodetypes="ccccc" />
      <path
         transform="matrix(-1.1780923,-0.06717913,-0.0819313,1.0551988,379.35797,1218.9785)"
         d="m 319.28571,-169.10715 c 0,1.28209 -1.07931,2.32143 -2.41071,2.32143 -1.3314,0 -2.41071,-1.03934 -2.41071,-2.32143 0,-1.28209 1.07931,-2.32143 2.41071,-2.32143 1.3314,0 2.41071,1.03934 2.41071,2.32143 z"
         sodipodi:ry="2.3214285"
         sodipodi:rx="2.4107144"
         sodipodi:cy="-169.10715"
         sodipodi:cx="316.875"
         id="path6587"
         style="fill:#000000;fill-opacity:1;fill-rule:nonzero;stroke:none"
         sodipodi:type="arc" />
      <path
         sodipodi:type="arc"
         style="fill:#999999;fill-opacity:1;fill-rule:nonzero;stroke:none"
         id="path6589"
         sodipodi:cx="316.875"
         sodipodi:cy="-169.10715"
         sodipodi:rx="2.4107144"
         sodipodi:ry="2.3214285"
         d="m 319.28571,-169.10715 c 0,1.28209 -1.07931,2.32143 -2.41071,2.32143 -1.3314,0 -2.41071,-1.03934 -2.41071,-2.32143 0,-1.28209 1.07931,-2.32143 2.41071,-2.32143 1.3314,0 2.41071,1.03934 2.41071,2.32143 z"
         transform="matrix(-0.88356925,-0.05038435,-0.06455193,0.83136873,288.96994,1175.8054)" />
      <path
         sodipodi:nodetypes="sssss"
         inkscape:connector-curvature="0"
         id="path6591"
         d="m 46.390265,1031.5659 c 0.01397,0.5344 3.675265,-0.8238 4.289292,-1.0588 0.673562,-0.2579 2.627371,0.094 2.350189,-0.028 -1.551506,-0.6855 -3.113451,-0.2672 -3.840519,-0.1885 -0.727075,0.079 -2.814875,0.679 -2.798962,1.2752 z"
         style="fill:#008000;fill-opacity:1;fill-rule:nonzero;stroke:none" />
      <path
         style="fill:#008000;fill-opacity:1;fill-rule:nonzero;stroke:none"
         d="m 46.544298,1033.5132 c 0.01397,0.5344 3.675266,-0.8238 4.289292,-1.0588 0.673563,-0.2579 2.627371,0.094 2.350189,-0.028 -1.551506,-0.6855 -3.113451,-0.2672 -3.840519,-0.1885 -0.727075,0.079 -2.814875,0.679 -2.798962,1.2752 z"
         id="path6593"
         inkscape:connector-curvature="0"
         sodipodi:nodetypes="sssss" />
      <path
         sodipodi:nodetypes="sssss"
         inkscape:connector-curvature="0"
         id="path6595"
         d="m 46.587577,1034.9323 c 0.01397,0.5344 3.675266,-0.8238 4.289292,-1.0589 0.673563,-0.2578 2.627371,0.094 2.350189,-0.028 -1.551506,-0.6855 -3.113451,-0.2673 -3.840519,-0.1885 -0.727075,0.079 -2.814875,0.679 -2.798962,1.2752 z"
         style="fill:#008000;fill-opacity:1;fill-rule:nonzero;stroke:none" />
      <path
         style="fill:#008000;fill-opacity:1;fill-rule:nonzero;stroke:none"
         d="m 46.157699,1030.2634 c 0.01397,0.5344 3.675265,-0.8238 4.289291,-1.0588 0.673563,-0.2579 2.627371,0.094 2.35019,-0.028 -1.551507,-0.6855 -3.113452,-0.2673 -3.840519,-0.1885 -0.727075,0.079 -2.814876,0.679 -2.798962,1.2752 z"
         id="path6597"
         inkscape:connector-curvature="0"
         sodipodi:nodetypes="sssss" />
      <path
         sodipodi:type="arc"
         style="fill:#00aa00;fill-opacity:1;fill-rule:nonzero;stroke:none"
         id="path6599"
         sodipodi:cx="283.66071"
         sodipodi:cy="-157.94643"
         sodipodi:rx="2.9464285"
         sodipodi:ry="2.946429"
         d="m 286.60713,-157.94643 c 0,1.62727 -1.31916,2.94643 -2.94642,2.94643 -1.62727,0 -2.94643,-1.31916 -2.94643,-2.94643 0,-1.62726 1.31916,-2.94643 2.94643,-2.94643 1.62726,0 2.94642,1.31917 2.94642,2.94643 z"
         transform="matrix(-0.88356925,-0.05038435,-0.06455193,0.83136873,288.30189,1177.9146)" />
      <path
         style="fill:#00d400;fill-opacity:1;fill-rule:nonzero;stroke:none"
         d="m 24.768244,1014.1002 c 1.02915,1.2408 6.057107,-6.3207 6.886755,-7.606 0.910141,-1.41 5.608706,-2.9096 4.806602,-2.8675 -4.489903,0.2361 -6.936563,3.0828 -8.292378,4.1349 -1.355815,1.0522 -4.549083,4.9543 -3.400979,6.3386 z"
         id="path6601"
         inkscape:connector-curvature="0"
         sodipodi:nodetypes="sssss" />
      <path
         sodipodi:nodetypes="sssss"
         inkscape:connector-curvature="0"
         id="path6603"
         d="m 27.418952,1014.2513 c 1.02915,1.2409 6.057107,-6.3206 6.886755,-7.606 0.910141,-1.41 5.608706,-2.9096 4.806601,-2.8674 -4.489903,0.236 -6.936562,3.0827 -8.292377,4.1349 -1.355815,1.0521 -4.549083,4.9542 -3.400979,6.3385 z"
         style="fill:#00d400;fill-opacity:1;fill-rule:nonzero;stroke:none" />
      <path
         style="fill:#00d400;fill-opacity:1;fill-rule:nonzero;stroke:none"
         d="m 35.816323,1013.9282 c 0.898068,1.3285 6.660554,-5.7593 7.615204,-6.9664 1.047262,-1.3241 5.870451,-2.3996 5.06865,-2.4291 -4.488191,-0.1653 -7.208227,2.4537 -8.662519,3.3814 -1.454291,0.9277 -5.023204,4.5319 -4.021335,6.0141 z"
         id="path6605"
         inkscape:connector-curvature="0"
         sodipodi:nodetypes="sssss" />
      <path
         sodipodi:nodetypes="sssss"
         inkscape:connector-curvature="0"
         id="path6607"
         d="m 33.76175,1014.6652 c 1.02915,1.2408 6.057107,-6.3207 6.886755,-7.606 0.910141,-1.4101 5.608706,-2.9097 4.806601,-2.8675 -4.489902,0.236 -6.936562,3.0828 -8.292377,4.1349 -1.355815,1.0521 -4.549083,4.9542 -3.400979,6.3386 z"
         style="fill:#00d400;fill-opacity:1;fill-rule:nonzero;stroke:none" />
      <path
         style="fill:#00d400;fill-opacity:1;fill-rule:nonzero;stroke:none"
         d="m 30.977028,1014.1464 c 1.029149,1.2408 6.057106,-6.3207 6.886754,-7.606 0.910141,-1.41 5.608707,-2.9097 4.806602,-2.8675 -4.489903,0.2361 -6.936563,3.0828 -8.292378,4.1349 -1.355815,1.0521 -4.549082,4.9543 -3.400978,6.3386 z"
         id="path6609"
         inkscape:connector-curvature="0"
         sodipodi:nodetypes="sssss" />
      <path
         sodipodi:nodetypes="sssss"
         inkscape:connector-curvature="0"
         id="path6611"
         d="m 37.887224,1014.1611 c 0.877608,1.3407 6.746322,-5.6701 7.719072,-6.8644 1.06712,-1.3102 5.905318,-2.3209 5.104195,-2.3612 -4.484415,-0.2256 -7.243553,2.357 -8.711543,3.2652 -1.467999,0.9082 -5.090758,4.4647 -4.111724,5.9604 z"
         style="fill:#00d400;fill-opacity:1;fill-rule:nonzero;stroke:none" />
      <path
         style="fill:#00d400;fill-opacity:1;fill-rule:nonzero;stroke:none"
         d="m 40.730209,1014.4002 c 0.877608,1.3407 6.746321,-5.6701 7.719071,-6.8644 1.067121,-1.3102 5.905319,-2.3209 5.104196,-2.3612 -4.484415,-0.2256 -7.243553,2.357 -8.711543,3.2652 -1.467999,0.9082 -5.090759,4.4647 -4.111724,5.9604 z"
         id="path6613"
         inkscape:connector-curvature="0"
         sodipodi:nodetypes="sssss" />
      <path
         sodipodi:nodetypes="sssss"
         inkscape:connector-curvature="0"
         id="path6615"
         d="m 42.673485,1015.2691 c 0.877608,1.3407 6.746321,-5.6701 7.719072,-6.8645 1.06712,-1.3101 5.905318,-2.3208 5.104195,-2.3611 -4.484415,-0.2257 -7.243553,2.357 -8.711543,3.2652 -1.467999,0.9082 -5.090759,4.4647 -4.111724,5.9604 z"
         style="fill:#00d400;fill-opacity:1;fill-rule:nonzero;stroke:none" />
      <path
         style="fill:#00aa00;fill-opacity:1;fill-rule:nonzero;stroke:none"
         d="m 23.696053,1013.1906 c -0.439106,2.056 12.511768,2.3576 14.690309,2.3804 2.389846,0.025 8.325442,4.2883 7.549027,3.4075 -4.346146,-4.93 -9.725253,-5.6724 -12.124126,-6.4595 -2.39889,-0.7873 -9.626297,-1.6225 -10.11521,0.6716 z"
         id="path6617"
         inkscape:connector-curvature="0"
         sodipodi:nodetypes="sssss" />
      <path
         sodipodi:nodetypes="sssss"
         inkscape:connector-curvature="0"
         id="path6619"
         d="m 24.08041,1014.702 c -0.353053,1.2216 11.601442,1.6426 13.611672,1.6967 2.20521,0.059 7.788498,2.7195 7.049999,2.1783 -4.133934,-3.0295 -9.114809,-3.5734 -11.347624,-4.0888 -2.232835,-0.5154 -8.92107,-1.1492 -9.314047,0.2138 z"
         style="fill:#00ff00;fill-opacity:1;fill-rule:nonzero;stroke:none" />
      <path
         style="fill:#00d400;fill-opacity:1;fill-rule:nonzero;stroke:none"
         d="m 48.077896,1008.1425 c -0.115748,0.5249 3.76788,-0.018 4.420961,-0.1165 0.716407,-0.1077 2.528242,0.6541 2.288658,0.4756 -1.340513,-1.0014 -2.958325,-0.9271 -3.683326,-1.0057 -0.725008,-0.079 -2.897453,0.061 -3.026294,0.6466 z"
         id="path6621"
         inkscape:connector-curvature="0"
         sodipodi:nodetypes="sssss" />
      <path
         sodipodi:nodetypes="sssss"
         inkscape:connector-curvature="0"
         id="path6623"
         d="m 47.928836,1009.4015 c -0.115748,0.5249 3.76788,-0.018 4.420961,-0.1165 0.716407,-0.1077 2.528242,0.6541 2.288658,0.4756 -1.340513,-1.0014 -2.958325,-0.9271 -3.683326,-1.0057 -0.725008,-0.079 -2.897453,0.061 -3.026294,0.6466 z"
         style="fill:#00aa00;fill-opacity:1;fill-rule:nonzero;stroke:none" />
      <path
         style="fill:#00aa00;fill-opacity:1;fill-rule:nonzero;stroke:none"
         d="m 47.810904,1010.9203 c -0.115748,0.5249 3.76788,-0.018 4.420961,-0.1164 0.716407,-0.1078 2.528242,0.6541 2.288658,0.4755 -1.340513,-1.0014 -2.958325,-0.927 -3.683326,-1.0057 -0.725008,-0.079 -2.897453,0.061 -3.026294,0.6466 z"
         id="path6625"
         inkscape:connector-curvature="0"
         sodipodi:nodetypes="sssss" />
      <path
         sodipodi:nodetypes="sssss"
         inkscape:connector-curvature="0"
         id="path6627"
         d="m 47.474848,1012.1868 c -0.115748,0.5249 3.76788,-0.018 4.420961,-0.1165 0.716407,-0.1077 2.528242,0.6541 2.288658,0.4756 -1.340513,-1.0014 -2.958325,-0.9271 -3.683326,-1.0057 -0.725008,-0.079 -2.897453,0.061 -3.026294,0.6466 z"
         style="fill:#00aa00;fill-opacity:1;fill-rule:nonzero;stroke:none" />
      <path
         style="fill:#00aa00;fill-opacity:1;fill-rule:nonzero;stroke:none"
         d="m 47.055546,1013.5049 c -0.115748,0.5249 3.76788,-0.018 4.420961,-0.1164 0.716407,-0.1078 2.528242,0.6541 2.288658,0.4755 -1.340513,-1.0014 -2.958325,-0.927 -3.683326,-1.0057 -0.725008,-0.079 -2.897453,0.061 -3.026294,0.6466 z"
         id="path6629"
         inkscape:connector-curvature="0"
         sodipodi:nodetypes="sssss" />
      <path
         sodipodi:nodetypes="sssss"
         inkscape:connector-curvature="0"
         id="path6631"
         d="m 45.29747,1029.096 c 0.01397,0.5344 3.675265,-0.8238 4.289291,-1.0589 0.673563,-0.2578 2.627371,0.094 2.35019,-0.028 -1.551507,-0.6856 -3.113451,-0.2673 -3.840519,-0.1885 -0.727075,0.079 -2.814876,0.679 -2.798962,1.2752 z"
         style="fill:#00aa00;fill-opacity:1;fill-rule:nonzero;stroke:none" />
      <path
         style="fill:#00ff00;fill-opacity:1;fill-rule:nonzero;stroke:none"
         d="m 23.537563,1021.6933 c 0.24711,0.5704 6.252698,-2.6374 7.256826,-3.1833 1.10154,-0.5988 4.75384,-1.1474 4.205611,-1.1478 -3.06877,0 -5.697772,1.1922 -6.969702,1.623 -1.271965,0.4308 -4.768941,2.072 -4.492735,2.7081 z"
         id="path6633"
         inkscape:connector-curvature="0"
         sodipodi:nodetypes="sssss" />
      <path
         sodipodi:nodetypes="sssss"
         inkscape:connector-curvature="0"
         id="path6635"
         d="m 33.426271,1033.1129 c -0.339589,-0.6593 6.087571,-2.2651 7.170341,-2.5255 1.187831,-0.2858 3.890563,-2.4466 3.556042,-2.0523 -1.872418,2.2068 -4.505628,3.0869 -5.653062,3.6369 -1.147431,0.5501 -4.694912,1.6766 -5.073321,0.9409 z"
         style="fill:#00aa00;fill-opacity:1;fill-rule:nonzero;stroke:none" />
      <path
         transform="matrix(-0.42542225,-0.02425913,-0.03227596,0.41568436,149.2527,1097.2318)"
         d="m 319.28571,-169.10715 c 0,1.28209 -1.07931,2.32143 -2.41071,2.32143 -1.3314,0 -2.41071,-1.03934 -2.41071,-2.32143 0,-1.28209 1.07931,-2.32143 2.41071,-2.32143 1.3314,0 2.41071,1.03934 2.41071,2.32143 z"
         sodipodi:ry="2.3214285"
         sodipodi:rx="2.4107144"
         sodipodi:cy="-169.10715"
         sodipodi:cx="316.875"
         id="path6637"
         style="fill:#000000;fill-opacity:1;fill-rule:nonzero;stroke:none"
         sodipodi:type="arc" />
    </g>
  </g>
  <g
     inkscape:groupmode="layer"
     id="layer2"
     inkscape:label="Layer 2"
     style="opacity:1">
    <path
       style="opacity:0.98009997;fill:#00d400;fill-opacity:1;fill-rule:nonzero;stroke:none"
       d="m 231.16885,40.200177 c -1.92124,3.843277 0.25603,9.0398 1.23463,9.528975 0.9788,0.488824 -0.79995,-3.937666 1.12116,-7.780673 1.92129,-3.843365 6.81479,-5.64773 5.83623,-6.136994 -0.97879,-0.488823 -6.27092,0.545685 -8.19202,4.388692 z"
       id="path3928-8-6-1-5-2-4"
       inkscape:connector-curvature="0"
       sodipodi:nodetypes="sssss" />
    <path
       sodipodi:nodetypes="ssssss"
       inkscape:connector-curvature="0"
       id="path3923-8-5-9-3-0-0"
       d="m 220.8154,48.671441 c 0.10039,1.629703 5.71814,2.253207 8.22162,2.698574 2.50342,0.44566 4.49379,1.692132 4.77966,0.0851 0.28589,-1.607133 1.10739,-4.867563 -1.33021,-4.004108 -2.49793,0.884723 -0.62174,-1.801168 -3.34523,-1.226184 -2.54571,0.537488 -8.37119,1.709699 -8.32584,2.446622 z"
       style="opacity:0.98009997;fill:#00d400;fill-opacity:1;fill-rule:nonzero;stroke:none" />
    <path
       style="opacity:0.98999999;fill:#00d400;fill-opacity:1;fill-rule:nonzero;stroke:none"
       d="m 239.4242,42.725354 c 1.67471,3.996351 7.07373,5.921788 8.08987,5.539581 1.01626,-0.381828 -3.53322,-2.078141 -5.20778,-6.07412 -1.6747,-3.99635 0.15937,-8.779925 -0.85677,-8.397716 -1.01626,0.381827 -3.69987,4.936276 -2.02532,8.932255 z"
       id="path3993-4-9-2-8-7-9"
       inkscape:connector-curvature="0"
       sodipodi:nodetypes="sssss" />
    <path
       sodipodi:nodetypes="ssssss"
       inkscape:connector-curvature="0"
       id="path3995-5-0-9-2-2-4"
       d="m 236.17598,53.385501 c 1.02132,1.307214 6.03226,-1.182491 8.36174,-2.152149 2.32951,-0.969565 4.69542,-0.994884 4.00701,-2.490133 -0.68841,-1.495248 -1.88501,-4.65814 -3.40655,-2.630966 -1.55922,2.077378 -1.5517,-1.170888 -3.47601,0.768697 -1.79867,1.81301 -5.94791,5.913589 -5.48619,6.504551 z"
       style="opacity:0.98999999;fill:#00d400;fill-opacity:1;fill-rule:nonzero;stroke:none" />
    <path
       sodipodi:nodetypes="ccccc"
       inkscape:connector-curvature="0"
       id="path6573-8"
       d="m 255.24756,12.5669 c -12.84894,-3.7999 -21.55579,1.2223 -32.33367,1.8334 l -0.49846,21.4958 c 9.44555,1.4721 20.81268,8.3483 30.66752,4.549 -0.92945,-5.2643 -4.46916,-12.3632 2.16461,-27.8782 z"
       style="fill:#00d400;fill-rule:evenodd;stroke:none" />
    <path
       sodipodi:nodetypes="sssss"
       inkscape:connector-curvature="0"
       id="path6575-8"
       d="m 220.36229,20.9329 c 1.14612,1.1463 5.42719,-6.8054 6.12995,-8.1549 0.77095,-1.4804 5.31022,-3.374 4.51462,-3.2634 -4.45351,0.6188 -6.61731,3.6597 -7.86722,4.8223 -1.24992,1.1625 -4.05595,5.3172 -2.77735,6.596 z"
       style="fill:#00d400;fill-opacity:1;fill-rule:nonzero;stroke:none" />
    <path
       style="fill:#00d400;fill-opacity:1;fill-rule:nonzero;stroke:none"
       d="m 222.93368,20.8989 c 1.14613,1.1462 5.42719,-6.8054 6.12996,-8.155 0.77095,-1.4804 5.31022,-3.3739 4.51461,-3.2634 -4.4535,0.6188 -6.6173,3.6598 -7.86722,4.8223 -1.24991,1.1626 -4.05594,5.3172 -2.77735,6.5961 z"
       id="path6577-2"
       inkscape:connector-curvature="0"
       sodipodi:nodetypes="sssss" />
    <path
       sodipodi:nodetypes="ccccc"
       inkscape:connector-curvature="0"
       id="path6579-4"
       d="m 223.4132,13.6712 -5.5118,8.597 -13.99148,3.0729 19.32899,0.5119 z"
       style="fill:#005500;fill-rule:evenodd;stroke:none" />
    <path
       sodipodi:nodetypes="sssss"
       inkscape:connector-curvature="0"
       id="path6581-5"
       d="m 222.01652,33.9043 c 0.37418,0.2854 1.58026,2.9952 2.53958,3.4532 1.15865,0.5531 14.6151,8.653 15.04856,9.0658 0.81252,0.7737 -11.35782,-9.5991 -12.84197,-10.5225 -0.6468,-0.4025 -5.51931,-2.5864 -4.74617,-1.9965 z"
       style="fill:#00d400;fill-opacity:1;fill-rule:nonzero;stroke:none" />
    <path
       style="fill:#00d400;fill-opacity:1;fill-rule:nonzero;stroke:none"
       d="m 223.01013,33.2772 c 0.35874,0.2346 1.77611,2.759 2.65588,3.0898 1.06253,0.3995 13.64731,6.6948 14.07485,7.0476 0.80141,0.6613 -11.02513,-8.0431 -12.41752,-8.7672 -0.60683,-0.3155 -5.05442,-1.8549 -4.31321,-1.3702 z"
       id="path6583-5"
       inkscape:connector-curvature="0"
       sodipodi:nodetypes="sssss" />
    <path
       sodipodi:nodetypes="ccccc"
       inkscape:connector-curvature="0"
       id="path6585-1"
       d="m 223.11897,25.6539 -19.70584,-0.1768 13.89741,4.2749 5.41517,6.4189 z"
       style="fill:#80ff80;fill-rule:evenodd;stroke:none" />
    <path
       sodipodi:type="arc"
       style="fill:#000000;fill-opacity:1;fill-rule:nonzero;stroke:none"
       id="path6587-7"
       sodipodi:cx="316.875"
       sodipodi:cy="-169.10715"
       sodipodi:rx="2.4107144"
       sodipodi:ry="2.3214285"
       d="m 319.28571,-169.10715 a 2.4107144,2.3214285 0 1 1 -4.82142,0 2.4107144,2.3214285 0 1 1 4.82142,0 z"
       transform="matrix(-1.1780923,-0.06717913,-0.0819313,1.0551988,579.93539,224.7778)" />
    <path
       transform="matrix(-0.88356925,-0.05038435,-0.06455193,0.83136873,489.54736,181.6047)"
       d="m 319.28571,-169.10715 a 2.4107144,2.3214285 0 1 1 -4.82142,0 2.4107144,2.3214285 0 1 1 4.82142,0 z"
       sodipodi:ry="2.3214285"
       sodipodi:rx="2.4107144"
       sodipodi:cy="-169.10715"
       sodipodi:cx="316.875"
       id="path6589-1"
       style="fill:#999999;fill-opacity:1;fill-rule:nonzero;stroke:none"
       sodipodi:type="arc" />
    <path
       style="fill:#008000;fill-opacity:1;fill-rule:nonzero;stroke:none"
       d="m 246.96768,37.3652 c 0.014,0.5344 3.67527,-0.8238 4.2893,-1.0588 0.67356,-0.2579 2.62737,0.094 2.35018,-0.028 -1.5515,-0.6855 -3.11345,-0.2672 -3.84051,-0.1885 -0.72708,0.079 -2.81488,0.679 -2.79897,1.2752 z"
       id="path6591-1"
       inkscape:connector-curvature="0"
       sodipodi:nodetypes="sssss" />
    <path
       sodipodi:nodetypes="sssss"
       inkscape:connector-curvature="0"
       id="path6593-5"
       d="m 247.12172,39.3125 c 0.014,0.5344 3.67526,-0.8238 4.28929,-1.0588 0.67356,-0.2579 2.62737,0.094 2.35019,-0.028 -1.55151,-0.6855 -3.11345,-0.2672 -3.84052,-0.1885 -0.72708,0.079 -2.81488,0.679 -2.79896,1.2752 z"
       style="fill:#008000;fill-opacity:1;fill-rule:nonzero;stroke:none" />
    <path
       style="fill:#008000;fill-opacity:1;fill-rule:nonzero;stroke:none"
       d="m 247.165,40.7316 c 0.014,0.5344 3.67526,-0.8238 4.28929,-1.0589 0.67356,-0.2578 2.62737,0.094 2.35019,-0.028 -1.55151,-0.6855 -3.11345,-0.2673 -3.84052,-0.1885 -0.72708,0.079 -2.81488,0.679 -2.79896,1.2752 z"
       id="path6595-2"
       inkscape:connector-curvature="0"
       sodipodi:nodetypes="sssss" />
    <path
       sodipodi:nodetypes="sssss"
       inkscape:connector-curvature="0"
       id="path6597-7"
       d="m 246.73512,36.0627 c 0.014,0.5344 3.67526,-0.8238 4.28929,-1.0588 0.67356,-0.2579 2.62737,0.094 2.35019,-0.028 -1.55151,-0.6855 -3.11345,-0.2673 -3.84052,-0.1885 -0.72708,0.079 -2.81488,0.679 -2.79896,1.2752 z"
       style="fill:#008000;fill-opacity:1;fill-rule:nonzero;stroke:none" />
    <path
       transform="matrix(-0.88356925,-0.05038435,-0.06455193,0.83136873,488.87931,183.7139)"
       d="m 286.60713,-157.94643 a 2.9464285,2.946429 0 1 1 -5.89285,0 2.9464285,2.946429 0 1 1 5.89285,0 z"
       sodipodi:ry="2.946429"
       sodipodi:rx="2.9464285"
       sodipodi:cy="-157.94643"
       sodipodi:cx="283.66071"
       id="path6599-6"
       style="fill:#00aa00;fill-opacity:1;fill-rule:nonzero;stroke:none"
       sodipodi:type="arc" />
    <path
       sodipodi:nodetypes="sssss"
       inkscape:connector-curvature="0"
       id="path6601-1"
       d="m 225.34567,19.8995 c 1.02915,1.2408 6.0571,-6.3207 6.88675,-7.606 0.91014,-1.41 5.6087,-2.9096 4.8066,-2.8675 -4.4899,0.2361 -6.93656,3.0828 -8.29237,4.1349 -1.35582,1.0522 -4.54909,4.9543 -3.40098,6.3386 z"
       style="fill:#00d400;fill-opacity:1;fill-rule:nonzero;stroke:none" />
    <path
       style="fill:#00d400;fill-opacity:1;fill-rule:nonzero;stroke:none"
       d="m 227.99637,20.0506 c 1.02915,1.2409 6.05711,-6.3206 6.88676,-7.606 0.91014,-1.41 5.6087,-2.9096 4.8066,-2.8674 -4.48991,0.236 -6.93657,3.0827 -8.29238,4.1349 -1.35581,1.0521 -4.54908,4.9542 -3.40098,6.3385 z"
       id="path6603-4"
       inkscape:connector-curvature="0"
       sodipodi:nodetypes="sssss" />
    <path
       sodipodi:nodetypes="sssss"
       inkscape:connector-curvature="0"
       id="path6605-2"
       d="m 236.39374,19.7275 c 0.89807,1.3285 6.66056,-5.7593 7.61521,-6.9664 1.04726,-1.3241 5.87045,-2.3996 5.06865,-2.4291 -4.4882,-0.1653 -7.20823,2.4537 -8.66252,3.3814 -1.45429,0.9277 -5.02321,4.5319 -4.02134,6.0141 z"
       style="fill:#00d400;fill-opacity:1;fill-rule:nonzero;stroke:none" />
    <path
       style="fill:#00d400;fill-opacity:1;fill-rule:nonzero;stroke:none"
       d="m 234.33917,20.4645 c 1.02915,1.2408 6.05711,-6.3207 6.88675,-7.606 0.91014,-1.4101 5.60871,-2.9097 4.8066,-2.8675 -4.4899,0.236 -6.93656,3.0828 -8.29237,4.1349 -1.35582,1.0521 -4.54909,4.9542 -3.40098,6.3386 z"
       id="path6607-3"
       inkscape:connector-curvature="0"
       sodipodi:nodetypes="sssss" />
    <path
       sodipodi:nodetypes="sssss"
       inkscape:connector-curvature="0"
       id="path6609-2"
       d="m 231.55445,19.9457 c 1.02915,1.2408 6.0571,-6.3207 6.88675,-7.606 0.91014,-1.41 5.60871,-2.9097 4.8066,-2.8675 -4.4899,0.2361 -6.93656,3.0828 -8.29238,4.1349 -1.35581,1.0521 -4.54907,4.9543 -3.40097,6.3386 z"
       style="fill:#00d400;fill-opacity:1;fill-rule:nonzero;stroke:none" />
    <path
       style="fill:#00d400;fill-opacity:1;fill-rule:nonzero;stroke:none"
       d="m 238.46464,19.9604 c 0.87761,1.3407 6.74632,-5.6701 7.71907,-6.8644 1.06712,-1.3102 5.90532,-2.3209 5.1042,-2.3612 -4.48442,-0.2256 -7.24355,2.357 -8.71154,3.2652 -1.468,0.9082 -5.09076,4.4647 -4.11173,5.9604 z"
       id="path6611-2"
       inkscape:connector-curvature="0"
       sodipodi:nodetypes="sssss" />
    <path
       sodipodi:nodetypes="sssss"
       inkscape:connector-curvature="0"
       id="path6613-1"
       d="m 241.30763,20.1995 c 0.87761,1.3407 6.74632,-5.6701 7.71907,-6.8644 1.06712,-1.3102 5.90532,-2.3209 5.10419,-2.3612 -4.48441,-0.2256 -7.24355,2.357 -8.71154,3.2652 -1.468,0.9082 -5.09076,4.4647 -4.11172,5.9604 z"
       style="fill:#00d400;fill-opacity:1;fill-rule:nonzero;stroke:none" />
    <path
       style="fill:#00d400;fill-opacity:1;fill-rule:nonzero;stroke:none"
       d="m 243.2509,21.0684 c 0.87761,1.3407 6.74632,-5.6701 7.71908,-6.8645 1.06712,-1.3101 5.90531,-2.3208 5.10419,-2.3611 -4.48441,-0.2257 -7.24355,2.357 -8.71154,3.2652 -1.468,0.9082 -5.09076,4.4647 -4.11173,5.9604 z"
       id="path6615-6"
       inkscape:connector-curvature="0"
       sodipodi:nodetypes="sssss" />
    <path
       sodipodi:nodetypes="sssss"
       inkscape:connector-curvature="0"
       id="path6617-8"
       d="m 224.27347,18.9899 c -0.4391,2.056 12.51177,2.3576 14.69031,2.3804 2.38985,0.025 8.32544,4.2883 7.54903,3.4075 -4.34615,-4.93 -9.72526,-5.6724 -12.12413,-6.4595 -2.39889,-0.7873 -9.62629,-1.6225 -10.11521,0.6716 z"
       style="fill:#00aa00;fill-opacity:1;fill-rule:nonzero;stroke:none" />
    <path
       style="fill:#00ff00;fill-opacity:1;fill-rule:nonzero;stroke:none"
       d="m 224.65783,20.5013 c -0.35305,1.2216 11.60144,1.6426 13.61167,1.6967 2.20521,0.059 7.7885,2.7195 7.05,2.1783 -4.13393,-3.0295 -9.11481,-3.5734 -11.34762,-4.0888 -2.23284,-0.5154 -8.92107,-1.1492 -9.31405,0.2138 z"
       id="path6619-5"
       inkscape:connector-curvature="0"
       sodipodi:nodetypes="sssss" />
    <path
       sodipodi:nodetypes="sssss"
       inkscape:connector-curvature="0"
       id="path6621-7"
       d="m 248.65531,13.9418 c -0.11574,0.5249 3.76788,-0.018 4.42097,-0.1165 0.7164,-0.1077 2.52824,0.6541 2.28865,0.4756 -1.34051,-1.0014 -2.95832,-0.9271 -3.68332,-1.0057 -0.72501,-0.079 -2.89746,0.061 -3.0263,0.6466 z"
       style="fill:#00d400;fill-opacity:1;fill-rule:nonzero;stroke:none" />
    <path
       style="fill:#00aa00;fill-opacity:1;fill-rule:nonzero;stroke:none"
       d="m 248.50625,15.2008 c -0.11574,0.5249 3.76788,-0.018 4.42097,-0.1165 0.7164,-0.1077 2.52824,0.6541 2.28865,0.4756 -1.34051,-1.0014 -2.95832,-0.9271 -3.68332,-1.0057 -0.72501,-0.079 -2.89746,0.061 -3.0263,0.6466 z"
       id="path6623-6"
       inkscape:connector-curvature="0"
       sodipodi:nodetypes="sssss" />
    <path
       sodipodi:nodetypes="sssss"
       inkscape:connector-curvature="0"
       id="path6625-1"
       d="m 248.38832,16.7196 c -0.11575,0.5249 3.76788,-0.018 4.42096,-0.1164 0.71641,-0.1078 2.52825,0.6541 2.28866,0.4755 -1.34051,-1.0014 -2.95832,-0.927 -3.68332,-1.0057 -0.72501,-0.079 -2.89746,0.061 -3.0263,0.6466 z"
       style="fill:#00aa00;fill-opacity:1;fill-rule:nonzero;stroke:none" />
    <path
       style="fill:#00aa00;fill-opacity:1;fill-rule:nonzero;stroke:none"
       d="m 248.05227,17.9861 c -0.11575,0.5249 3.76788,-0.018 4.42096,-0.1165 0.7164,-0.1077 2.52824,0.6541 2.28866,0.4756 -1.34052,-1.0014 -2.95833,-0.9271 -3.68333,-1.0057 -0.72501,-0.079 -2.89745,0.061 -3.02629,0.6466 z"
       id="path6627-8"
       inkscape:connector-curvature="0"
       sodipodi:nodetypes="sssss" />
    <path
       sodipodi:nodetypes="sssss"
       inkscape:connector-curvature="0"
       id="path6629-9"
       d="m 247.63296,19.3042 c -0.11574,0.5249 3.76788,-0.018 4.42097,-0.1164 0.7164,-0.1078 2.52824,0.6541 2.28865,0.4755 -1.34051,-1.0014 -2.95832,-0.927 -3.68332,-1.0057 -0.72501,-0.079 -2.89746,0.061 -3.0263,0.6466 z"
       style="fill:#00aa00;fill-opacity:1;fill-rule:nonzero;stroke:none" />
    <path
       style="fill:#00aa00;fill-opacity:1;fill-rule:nonzero;stroke:none"
       d="m 245.87489,34.8953 c 0.014,0.5344 3.67526,-0.8238 4.28929,-1.0589 0.67356,-0.2578 2.62737,0.094 2.35019,-0.028 -1.55151,-0.6856 -3.11345,-0.2673 -3.84052,-0.1885 -0.72707,0.079 -2.81488,0.679 -2.79896,1.2752 z"
       id="path6631-2"
       inkscape:connector-curvature="0"
       sodipodi:nodetypes="sssss" />
    <path
       sodipodi:nodetypes="sssss"
       inkscape:connector-curvature="0"
       id="path6633-7"
       d="m 224.11498,27.4926 c 0.24711,0.5704 6.2527,-2.6374 7.25683,-3.1833 1.10154,-0.5988 4.75384,-1.1474 4.20561,-1.1478 -3.06877,0 -5.69777,1.1922 -6.9697,1.623 -1.27197,0.4308 -4.76894,2.072 -4.49274,2.7081 z"
       style="fill:#00ff00;fill-opacity:1;fill-rule:nonzero;stroke:none" />
    <path
       style="fill:#00aa00;fill-opacity:1;fill-rule:nonzero;stroke:none"
       d="m 234.00369,38.9122 c -0.33959,-0.6593 6.08757,-2.2651 7.17034,-2.5255 1.18783,-0.2858 3.89056,-2.4466 3.55604,-2.0523 -1.87242,2.2068 -4.50563,3.0869 -5.65306,3.6369 -1.14743,0.5501 -4.69491,1.6766 -5.07332,0.9409 z"
       id="path6635-9"
       inkscape:connector-curvature="0"
       sodipodi:nodetypes="sssss" />
    <path
       sodipodi:type="arc"
       style="fill:#000000;fill-opacity:1;fill-rule:nonzero;stroke:none"
       id="path6637-5"
       sodipodi:cx="316.875"
       sodipodi:cy="-169.10715"
       sodipodi:rx="2.4107144"
       sodipodi:ry="2.3214285"
       d="m 319.28571,-169.10715 a 2.4107144,2.3214285 0 1 1 -4.82142,0 2.4107144,2.3214285 0 1 1 4.82142,0 z"
       transform="matrix(-0.42542225,-0.02425913,-0.03227596,0.41568436,349.83012,103.0311)" />
  </g>
  <g
     inkscape:groupmode="layer"
     id="layer3"
     inkscape:label="Layer 3"
     style="opacity:1">
    <path
       style="opacity:0.98009997;fill:#00d400;fill-opacity:1;fill-rule:nonzero;stroke:none"
       d="m 170.43507,40.275282 c -3.41565,2.606774 -3.74552,8.231321 -3.08175,9.101018 0.6641,0.869466 1.01324,-3.888248 4.42866,-6.494836 3.41573,-2.606832 8.60414,-2.075317 7.94045,-2.945074 -0.66409,-0.869464 -5.87195,-2.267696 -9.28736,0.338892 z"
       id="path3928-8-6-1-5-2-4-4"
       inkscape:connector-curvature="0"
       sodipodi:nodetypes="sssss" />
    <path
       sodipodi:nodetypes="ssssss"
       inkscape:connector-curvature="0"
       id="path3923-8-5-9-3-0-0-3"
       d="m 157.14067,47.071938 c -0.29643,1.605659 5.00414,3.568286 7.32579,4.605451 2.32152,1.037434 3.95167,2.727961 4.61742,1.237644 0.6658,-1.490409 2.25088,-4.455675 -0.32313,-4.206889 -2.6377,0.254843 -0.16804,-1.898034 -2.94976,-1.99826 -2.60015,-0.09365 -8.53624,-0.363984 -8.67032,0.362057 z"
       style="opacity:0.98009997;fill:#00d400;fill-opacity:1;fill-rule:nonzero;stroke:none" />
    <path
       style="opacity:0.98999999;fill:#00d400;fill-opacity:1;fill-rule:nonzero;stroke:none"
       d="m 178.58093,42.725354 c 1.67471,3.996351 7.07373,5.921788 8.08987,5.539581 1.01626,-0.381828 -3.53322,-2.078141 -5.20778,-6.07412 -1.6747,-3.99635 0.15937,-8.779925 -0.85677,-8.397716 -1.01626,0.381827 -3.69987,4.936276 -2.02532,8.932255 z"
       id="path3993-4-9-2-8-7-9-1"
       inkscape:connector-curvature="0"
       sodipodi:nodetypes="sssss" />
    <path
       sodipodi:nodetypes="ssssss"
       inkscape:connector-curvature="0"
       id="path3995-5-0-9-2-2-4-2"
       d="m 177.44287,55.028587 c 1.33156,0.98936 5.50227,-2.740705 7.49095,-4.293709 1.98875,-1.552924 4.26313,-2.205106 3.20265,-3.464095 -1.06048,-1.258988 -3.05344,-3.990999 -3.98254,-1.632764 -0.95212,2.416636 -1.80677,-0.717189 -3.14745,1.663468 -1.25313,2.225281 -4.16559,7.279835 -3.56361,7.7271 z"
       style="opacity:0.98999999;fill:#00d400;fill-opacity:1;fill-rule:nonzero;stroke:none" />
    <path
       sodipodi:nodetypes="ccccc"
       inkscape:connector-curvature="0"
       id="path6573-8-3"
       d="m 191.24756,12.5669 c -12.84894,-3.7999 -21.55578,1.2223 -32.33367,1.8334 l -0.49846,21.4958 c 9.44555,1.4721 20.81268,8.3483 30.66752,4.549 -0.92945,-5.2643 -4.46916,-12.3632 2.16461,-27.8782 z"
       style="fill:#00d400;fill-rule:evenodd;stroke:none" />
    <path
       sodipodi:nodetypes="sssss"
       inkscape:connector-curvature="0"
       id="path6575-8-3"
       d="m 156.36229,20.9329 c 1.14612,1.1463 5.42719,-6.8054 6.12996,-8.1549 0.77094,-1.4804 5.31021,-3.374 4.51461,-3.2634 -4.45351,0.6188 -6.61731,3.6597 -7.86722,4.8223 -1.24991,1.1625 -4.05595,5.3172 -2.77735,6.596 z"
       style="fill:#00d400;fill-opacity:1;fill-rule:nonzero;stroke:none" />
    <path
       style="fill:#00d400;fill-opacity:1;fill-rule:nonzero;stroke:none"
       d="m 158.93368,20.8989 c 1.14613,1.1462 5.42719,-6.8054 6.12996,-8.155 0.77095,-1.4804 5.31022,-3.3739 4.51462,-3.2634 -4.45351,0.6188 -6.61731,3.6598 -7.86723,4.8223 -1.24991,1.1626 -4.05594,5.3172 -2.77735,6.5961 z"
       id="path6577-2-4"
       inkscape:connector-curvature="0"
       sodipodi:nodetypes="sssss" />
    <path
       sodipodi:nodetypes="ccccc"
       inkscape:connector-curvature="0"
       id="path6579-4-1"
       d="m 159.4132,13.6712 -5.5118,8.597 -13.99148,3.0729 19.32899,0.5119 z"
       style="fill:#005500;fill-rule:evenodd;stroke:none" />
    <path
       sodipodi:nodetypes="sssss"
       inkscape:connector-curvature="0"
       id="path6581-5-1"
       d="m 158.01652,33.9043 c 0.37418,0.2854 1.58026,2.9952 2.53958,3.4532 1.15865,0.5531 14.6151,8.653 15.04857,9.0658 0.81251,0.7737 -11.35783,-9.5991 -12.84197,-10.5225 -0.64681,-0.4025 -5.51932,-2.5864 -4.74618,-1.9965 z"
       style="fill:#00d400;fill-opacity:1;fill-rule:nonzero;stroke:none" />
    <path
       style="fill:#00d400;fill-opacity:1;fill-rule:nonzero;stroke:none"
       d="m 159.01013,33.2772 c 0.35874,0.2346 1.77611,2.759 2.65588,3.0898 1.06253,0.3995 13.64731,6.6948 14.07486,7.0476 0.80141,0.6613 -11.02514,-8.0431 -12.41753,-8.7672 -0.60683,-0.3155 -5.05442,-1.8549 -4.31321,-1.3702 z"
       id="path6583-5-3"
       inkscape:connector-curvature="0"
       sodipodi:nodetypes="sssss" />
    <path
       sodipodi:nodetypes="ccccc"
       inkscape:connector-curvature="0"
       id="path6585-1-8"
       d="m 159.11897,25.6539 -19.70584,-0.1768 13.89741,4.2749 5.41517,6.4189 z"
       style="fill:#80ff80;fill-rule:evenodd;stroke:none" />
    <path
       sodipodi:type="arc"
       style="fill:#000000;fill-opacity:1;fill-rule:nonzero;stroke:none"
       id="path6587-7-7"
       sodipodi:cx="316.875"
       sodipodi:cy="-169.10715"
       sodipodi:rx="2.4107144"
       sodipodi:ry="2.3214285"
       d="m 319.28571,-169.10715 a 2.4107144,2.3214285 0 1 1 -4.82142,0 2.4107144,2.3214285 0 1 1 4.82142,0 z"
       transform="matrix(-1.1780923,-0.06717913,-0.0819313,1.0551988,515.93539,224.7778)" />
    <path
       transform="matrix(-0.88356925,-0.05038435,-0.06455193,0.83136873,425.54736,181.6047)"
       d="m 319.28571,-169.10715 a 2.4107144,2.3214285 0 1 1 -4.82142,0 2.4107144,2.3214285 0 1 1 4.82142,0 z"
       sodipodi:ry="2.3214285"
       sodipodi:rx="2.4107144"
       sodipodi:cy="-169.10715"
       sodipodi:cx="316.875"
       id="path6589-1-4"
       style="fill:#999999;fill-opacity:1;fill-rule:nonzero;stroke:none"
       sodipodi:type="arc" />
    <path
       style="fill:#008000;fill-opacity:1;fill-rule:nonzero;stroke:none"
       d="m 182.96769,37.3652 c 0.014,0.5344 3.67526,-0.8238 4.28929,-1.0588 0.67356,-0.2579 2.62737,0.094 2.35019,-0.028 -1.55151,-0.6855 -3.11345,-0.2672 -3.84052,-0.1885 -0.72708,0.079 -2.81488,0.679 -2.79896,1.2752 z"
       id="path6591-1-2"
       inkscape:connector-curvature="0"
       sodipodi:nodetypes="sssss" />
    <path
       sodipodi:nodetypes="sssss"
       inkscape:connector-curvature="0"
       id="path6593-5-7"
       d="m 183.12172,39.3125 c 0.014,0.5344 3.67527,-0.8238 4.28929,-1.0588 0.67357,-0.2579 2.62737,0.094 2.35019,-0.028 -1.5515,-0.6855 -3.11345,-0.2672 -3.84052,-0.1885 -0.72707,0.079 -2.81487,0.679 -2.79896,1.2752 z"
       style="fill:#008000;fill-opacity:1;fill-rule:nonzero;stroke:none" />
    <path
       style="fill:#008000;fill-opacity:1;fill-rule:nonzero;stroke:none"
       d="m 183.165,40.7316 c 0.014,0.5344 3.67527,-0.8238 4.28929,-1.0589 0.67356,-0.2578 2.62737,0.094 2.35019,-0.028 -1.55151,-0.6855 -3.11345,-0.2673 -3.84052,-0.1885 -0.72707,0.079 -2.81487,0.679 -2.79896,1.2752 z"
       id="path6595-2-7"
       inkscape:connector-curvature="0"
       sodipodi:nodetypes="sssss" />
    <path
       sodipodi:nodetypes="sssss"
       inkscape:connector-curvature="0"
       id="path6597-7-9"
       d="m 182.73512,36.0627 c 0.014,0.5344 3.67527,-0.8238 4.28929,-1.0588 0.67357,-0.2579 2.62737,0.094 2.35019,-0.028 -1.5515,-0.6855 -3.11345,-0.2673 -3.84052,-0.1885 -0.72707,0.079 -2.81487,0.679 -2.79896,1.2752 z"
       style="fill:#008000;fill-opacity:1;fill-rule:nonzero;stroke:none" />
    <path
       transform="matrix(-0.88356925,-0.05038435,-0.06455193,0.83136873,424.87931,183.7139)"
       d="m 286.60713,-157.94643 a 2.9464285,2.946429 0 1 1 -5.89285,0 2.9464285,2.946429 0 1 1 5.89285,0 z"
       sodipodi:ry="2.946429"
       sodipodi:rx="2.9464285"
       sodipodi:cy="-157.94643"
       sodipodi:cx="283.66071"
       id="path6599-6-3"
       style="fill:#00aa00;fill-opacity:1;fill-rule:nonzero;stroke:none"
       sodipodi:type="arc" />
    <path
       sodipodi:nodetypes="sssss"
       inkscape:connector-curvature="0"
       id="path6601-1-1"
       d="m 161.34567,19.8995 c 1.02915,1.2408 6.0571,-6.3207 6.88675,-7.606 0.91014,-1.41 5.60871,-2.9096 4.8066,-2.8675 -4.4899,0.2361 -6.93656,3.0828 -8.29237,4.1349 -1.35582,1.0522 -4.54909,4.9543 -3.40098,6.3386 z"
       style="fill:#00d400;fill-opacity:1;fill-rule:nonzero;stroke:none" />
    <path
       style="fill:#00d400;fill-opacity:1;fill-rule:nonzero;stroke:none"
       d="m 163.99637,20.0506 c 1.02915,1.2409 6.05711,-6.3206 6.88676,-7.606 0.91014,-1.41 5.60871,-2.9096 4.8066,-2.8674 -4.4899,0.236 -6.93656,3.0827 -8.29238,4.1349 -1.35581,1.0521 -4.54908,4.9542 -3.40098,6.3385 z"
       id="path6603-4-9"
       inkscape:connector-curvature="0"
       sodipodi:nodetypes="sssss" />
    <path
       sodipodi:nodetypes="sssss"
       inkscape:connector-curvature="0"
       id="path6605-2-8"
       d="m 172.39375,19.7275 c 0.89806,1.3285 6.66055,-5.7593 7.6152,-6.9664 1.04726,-1.3241 5.87045,-2.3996 5.06865,-2.4291 -4.48819,-0.1653 -7.20823,2.4537 -8.66252,3.3814 -1.45429,0.9277 -5.0232,4.5319 -4.02133,6.0141 z"
       style="fill:#00d400;fill-opacity:1;fill-rule:nonzero;stroke:none" />
    <path
       style="fill:#00d400;fill-opacity:1;fill-rule:nonzero;stroke:none"
       d="m 170.33917,20.4645 c 1.02915,1.2408 6.05711,-6.3207 6.88676,-7.606 0.91014,-1.4101 5.6087,-2.9097 4.8066,-2.8675 -4.4899,0.236 -6.93656,3.0828 -8.29238,4.1349 -1.35581,1.0521 -4.54908,4.9542 -3.40098,6.3386 z"
       id="path6607-3-6"
       inkscape:connector-curvature="0"
       sodipodi:nodetypes="sssss" />
    <path
       sodipodi:nodetypes="sssss"
       inkscape:connector-curvature="0"
       id="path6609-2-5"
       d="m 167.55445,19.9457 c 1.02915,1.2408 6.05711,-6.3207 6.88675,-7.606 0.91014,-1.41 5.60871,-2.9097 4.80661,-2.8675 -4.48991,0.2361 -6.93657,3.0828 -8.29238,4.1349 -1.35582,1.0521 -4.54908,4.9543 -3.40098,6.3386 z"
       style="fill:#00d400;fill-opacity:1;fill-rule:nonzero;stroke:none" />
    <path
       style="fill:#00d400;fill-opacity:1;fill-rule:nonzero;stroke:none"
       d="m 174.46465,19.9604 c 0.8776,1.3407 6.74632,-5.6701 7.71907,-6.8644 1.06712,-1.3102 5.90532,-2.3209 5.10419,-2.3612 -4.48441,-0.2256 -7.24355,2.357 -8.71154,3.2652 -1.468,0.9082 -5.09076,4.4647 -4.11172,5.9604 z"
       id="path6611-2-0"
       inkscape:connector-curvature="0"
       sodipodi:nodetypes="sssss" />
    <path
       sodipodi:nodetypes="sssss"
       inkscape:connector-curvature="0"
       id="path6613-1-2"
       d="m 177.30763,20.1995 c 0.87761,1.3407 6.74632,-5.6701 7.71907,-6.8644 1.06712,-1.3102 5.90532,-2.3209 5.1042,-2.3612 -4.48442,-0.2256 -7.24356,2.357 -8.71154,3.2652 -1.468,0.9082 -5.09076,4.4647 -4.11173,5.9604 z"
       style="fill:#00d400;fill-opacity:1;fill-rule:nonzero;stroke:none" />
    <path
       style="fill:#00d400;fill-opacity:1;fill-rule:nonzero;stroke:none"
       d="m 179.25091,21.0684 c 0.87761,1.3407 6.74632,-5.6701 7.71907,-6.8645 1.06712,-1.3101 5.90532,-2.3208 5.10419,-2.3611 -4.48441,-0.2257 -7.24355,2.357 -8.71154,3.2652 -1.468,0.9082 -5.09076,4.4647 -4.11172,5.9604 z"
       id="path6615-6-8"
       inkscape:connector-curvature="0"
       sodipodi:nodetypes="sssss" />
    <path
       sodipodi:nodetypes="sssss"
       inkscape:connector-curvature="0"
       id="path6617-8-6"
       d="m 160.27348,18.9899 c -0.43911,2.056 12.51176,2.3576 14.6903,2.3804 2.38985,0.025 8.32545,4.2883 7.54903,3.4075 -4.34614,-4.93 -9.72525,-5.6724 -12.12412,-6.4595 -2.39889,-0.7873 -9.6263,-1.6225 -10.11521,0.6716 z"
       style="fill:#00aa00;fill-opacity:1;fill-rule:nonzero;stroke:none" />
    <path
       style="fill:#00ff00;fill-opacity:1;fill-rule:nonzero;stroke:none"
       d="m 160.65783,20.5013 c -0.35305,1.2216 11.60144,1.6426 13.61167,1.6967 2.20521,0.059 7.7885,2.7195 7.05,2.1783 -4.13393,-3.0295 -9.11481,-3.5734 -11.34762,-4.0888 -2.23284,-0.5154 -8.92107,-1.1492 -9.31405,0.2138 z"
       id="path6619-5-0"
       inkscape:connector-curvature="0"
       sodipodi:nodetypes="sssss" />
    <path
       sodipodi:nodetypes="sssss"
       inkscape:connector-curvature="0"
       id="path6621-7-2"
       d="m 184.65532,13.9418 c -0.11575,0.5249 3.76788,-0.018 4.42096,-0.1165 0.71641,-0.1077 2.52824,0.6541 2.28866,0.4756 -1.34052,-1.0014 -2.95833,-0.9271 -3.68333,-1.0057 -0.72501,-0.079 -2.89745,0.061 -3.02629,0.6466 z"
       style="fill:#00d400;fill-opacity:1;fill-rule:nonzero;stroke:none" />
    <path
       style="fill:#00aa00;fill-opacity:1;fill-rule:nonzero;stroke:none"
       d="m 184.50626,15.2008 c -0.11575,0.5249 3.76788,-0.018 4.42096,-0.1165 0.71641,-0.1077 2.52824,0.6541 2.28866,0.4756 -1.34052,-1.0014 -2.95833,-0.9271 -3.68333,-1.0057 -0.72501,-0.079 -2.89745,0.061 -3.02629,0.6466 z"
       id="path6623-6-4"
       inkscape:connector-curvature="0"
       sodipodi:nodetypes="sssss" />
    <path
       sodipodi:nodetypes="sssss"
       inkscape:connector-curvature="0"
       id="path6625-1-8"
       d="m 184.38833,16.7196 c -0.11575,0.5249 3.76788,-0.018 4.42096,-0.1164 0.7164,-0.1078 2.52824,0.6541 2.28865,0.4755 -1.34051,-1.0014 -2.95832,-0.927 -3.68332,-1.0057 -0.72501,-0.079 -2.89745,0.061 -3.02629,0.6466 z"
       style="fill:#00aa00;fill-opacity:1;fill-rule:nonzero;stroke:none" />
    <path
       style="fill:#00aa00;fill-opacity:1;fill-rule:nonzero;stroke:none"
       d="m 184.05227,17.9861 c -0.11575,0.5249 3.76788,-0.018 4.42096,-0.1165 0.71641,-0.1077 2.52824,0.6541 2.28866,0.4756 -1.34051,-1.0014 -2.95833,-0.9271 -3.68333,-1.0057 -0.725,-0.079 -2.89745,0.061 -3.02629,0.6466 z"
       id="path6627-8-6"
       inkscape:connector-curvature="0"
       sodipodi:nodetypes="sssss" />
    <path
       sodipodi:nodetypes="sssss"
       inkscape:connector-curvature="0"
       id="path6629-9-5"
       d="m 183.63297,19.3042 c -0.11575,0.5249 3.76788,-0.018 4.42096,-0.1164 0.71641,-0.1078 2.52824,0.6541 2.28866,0.4755 -1.34052,-1.0014 -2.95833,-0.927 -3.68333,-1.0057 -0.72501,-0.079 -2.89745,0.061 -3.02629,0.6466 z"
       style="fill:#00aa00;fill-opacity:1;fill-rule:nonzero;stroke:none" />
    <path
       style="fill:#00aa00;fill-opacity:1;fill-rule:nonzero;stroke:none"
       d="m 181.87489,34.8953 c 0.014,0.5344 3.67527,-0.8238 4.28929,-1.0589 0.67357,-0.2578 2.62737,0.094 2.35019,-0.028 -1.5515,-0.6856 -3.11345,-0.2673 -3.84052,-0.1885 -0.72707,0.079 -2.81487,0.679 -2.79896,1.2752 z"
       id="path6631-2-0"
       inkscape:connector-curvature="0"
       sodipodi:nodetypes="sssss" />
    <path
       sodipodi:nodetypes="sssss"
       inkscape:connector-curvature="0"
       id="path6633-7-9"
       d="m 160.11499,27.4926 c 0.24711,0.5704 6.25269,-2.6374 7.25682,-3.1833 1.10154,-0.5988 4.75384,-1.1474 4.20561,-1.1478 -3.06877,0 -5.69777,1.1922 -6.9697,1.623 -1.27196,0.4308 -4.76894,2.072 -4.49273,2.7081 z"
       style="fill:#00ff00;fill-opacity:1;fill-rule:nonzero;stroke:none" />
    <path
       style="fill:#00aa00;fill-opacity:1;fill-rule:nonzero;stroke:none"
       d="m 170.00369,38.9122 c -0.33959,-0.6593 6.08757,-2.2651 7.17034,-2.5255 1.18784,-0.2858 3.89057,-2.4466 3.55605,-2.0523 -1.87242,2.2068 -4.50563,3.0869 -5.65307,3.6369 -1.14743,0.5501 -4.69491,1.6766 -5.07332,0.9409 z"
       id="path6635-9-0"
       inkscape:connector-curvature="0"
       sodipodi:nodetypes="sssss" />
    <path
       sodipodi:type="arc"
       style="fill:#000000;fill-opacity:1;fill-rule:nonzero;stroke:none"
       id="path6637-5-0"
       sodipodi:cx="316.875"
       sodipodi:cy="-169.10715"
       sodipodi:rx="2.4107144"
       sodipodi:ry="2.3214285"
       d="m 319.28571,-169.10715 a 2.4107144,2.3214285 0 1 1 -4.82142,0 2.4107144,2.3214285 0 1 1 4.82142,0 z"
       transform="matrix(-0.42542225,-0.02425913,-0.03227596,0.41568436,285.83012,103.0311)" />
  </g>
  <g
     inkscape:groupmode="layer"
     id="layer4"
     inkscape:label="Layer 4"
     style="opacity:1">
    <path
       style="opacity:0.98009997;fill:#00d400;fill-opacity:1;fill-rule:nonzero;stroke:none"
       d="m 105.92076,40.736736 c -3.01302,3.063277 -2.54478,8.677998 -1.76477,9.445172 0.78029,0.766899 0.45363,-3.992411 3.46643,-7.055471 3.01309,-3.063347 8.22455,-3.270333 7.44462,-4.037577 -0.7803,-0.766898 -6.13347,-1.415184 -9.14628,1.647876 z"
       id="path3928-8-6-1-5-2-4-4-6"
       inkscape:connector-curvature="0"
       sodipodi:nodetypes="sssss" />
    <path
       sodipodi:nodetypes="ssssss"
       inkscape:connector-curvature="0"
       id="path3923-8-5-9-3-0-0-3-1"
       d="m 93.645727,49.719002 c 0.29627,1.605689 5.94822,1.546892 8.487143,1.686977 2.5389,0.140383 4.66511,1.137625 4.75501,-0.492157 0.0899,-1.629885 0.51206,-4.965609 -1.80356,-3.81438 -2.37294,1.17962 -0.8345,-1.713003 -3.46873,-0.813646 -2.462273,0.840682 -8.103783,2.707141 -7.969863,3.43321 z"
       style="opacity:0.98009997;fill:#00d400;fill-opacity:1;fill-rule:nonzero;stroke:none" />
    <path
       style="opacity:0.98999999;fill:#00d400;fill-opacity:1;fill-rule:nonzero;stroke:none"
       d="m 114.58093,42.725354 c 1.67471,3.996351 7.07373,5.921788 8.08987,5.539581 1.01626,-0.381828 -3.53322,-2.078141 -5.20778,-6.07412 -1.6747,-3.99635 0.15937,-8.779925 -0.85677,-8.397716 -1.01626,0.381827 -3.69987,4.936276 -2.02532,8.932255 z"
       id="path3993-4-9-2-8-7-9-1-3"
       inkscape:connector-curvature="0"
       sodipodi:nodetypes="sssss" />
    <path
       sodipodi:nodetypes="ssssss"
       inkscape:connector-curvature="0"
       id="path3995-5-0-9-2-2-4-2-8"
       d="m 110.24575,52.106517 c 0.75834,1.475406 6.14698,-0.03145 8.61688,-0.54753 2.4699,-0.515981 4.79867,-0.09762 4.40257,-1.695359 -0.3961,-1.597742 -0.97897,-4.928809 -2.85334,-3.222576 -1.92079,1.748488 -1.30487,-1.440859 -3.55848,0.10388 -2.10648,1.443941 -6.95047,4.694585 -6.60763,5.361585 z"
       style="opacity:0.98999999;fill:#00d400;fill-opacity:1;fill-rule:nonzero;stroke:none" />
    <path
       sodipodi:nodetypes="ccccc"
       inkscape:connector-curvature="0"
       id="path6573-8-3-9"
       d="M 127.24756,12.5669 C 114.39862,8.767 105.69178,13.7892 94.913887,14.4003 l -0.49846,21.4958 c 9.445553,1.4721 20.812683,8.3483 30.667523,4.549 -0.92945,-5.2643 -4.46916,-12.3632 2.16461,-27.8782 z"
       style="fill:#00d400;fill-rule:evenodd;stroke:none" />
    <path
       sodipodi:nodetypes="sssss"
       inkscape:connector-curvature="0"
       id="path6575-8-3-3"
       d="m 92.362287,20.9329 c 1.14612,1.1463 5.42719,-6.8054 6.12996,-8.1549 0.77094,-1.4804 5.310213,-3.374 4.514613,-3.2634 -4.453513,0.6188 -6.617313,3.6597 -7.867223,4.8223 -1.24991,1.1625 -4.05595,5.3172 -2.77735,6.596 z"
       style="fill:#00d400;fill-opacity:1;fill-rule:nonzero;stroke:none" />
    <path
       style="fill:#00d400;fill-opacity:1;fill-rule:nonzero;stroke:none"
       d="m 94.933677,20.8989 c 1.14613,1.1462 5.427193,-6.8054 6.129963,-8.155 0.77095,-1.4804 5.31022,-3.3739 4.51462,-3.2634 -4.45351,0.6188 -6.617313,3.6598 -7.867233,4.8223 -1.24991,1.1626 -4.05594,5.3172 -2.77735,6.5961 z"
       id="path6577-2-4-4"
       inkscape:connector-curvature="0"
       sodipodi:nodetypes="sssss" />
    <path
       sodipodi:nodetypes="ccccc"
       inkscape:connector-curvature="0"
       id="path6579-4-1-4"
       d="m 95.413197,13.6712 -5.5118,8.597 -13.99148,3.0729 19.32899,0.5119 z"
       style="fill:#005500;fill-rule:evenodd;stroke:none" />
    <path
       sodipodi:nodetypes="sssss"
       inkscape:connector-curvature="0"
       id="path6581-5-1-6"
       d="m 94.016517,33.9043 c 0.37418,0.2854 1.58026,2.9952 2.53958,3.4532 1.15865,0.5531 14.615103,8.653 15.048573,9.0658 0.81251,0.7737 -11.35783,-9.5991 -12.841973,-10.5225 -0.64681,-0.4025 -5.51932,-2.5864 -4.74618,-1.9965 z"
       style="fill:#00d400;fill-opacity:1;fill-rule:nonzero;stroke:none" />
    <path
       style="fill:#00d400;fill-opacity:1;fill-rule:nonzero;stroke:none"
       d="m 95.010127,33.2772 c 0.35874,0.2346 1.77611,2.759 2.65588,3.0898 1.06253,0.3995 13.647313,6.6948 14.074863,7.0476 0.80141,0.6613 -11.02514,-8.0431 -12.417533,-8.7672 -0.60683,-0.3155 -5.05442,-1.8549 -4.31321,-1.3702 z"
       id="path6583-5-3-0"
       inkscape:connector-curvature="0"
       sodipodi:nodetypes="sssss" />
    <path
       sodipodi:nodetypes="ccccc"
       inkscape:connector-curvature="0"
       id="path6585-1-8-6"
       d="m 95.118967,25.6539 -19.70584,-0.1768 13.89741,4.2749 5.41517,6.4189 z"
       style="fill:#80ff80;fill-rule:evenodd;stroke:none" />
    <path
       sodipodi:type="arc"
       style="fill:#000000;fill-opacity:1;fill-rule:nonzero;stroke:none"
       id="path6587-7-7-6"
       sodipodi:cx="316.875"
       sodipodi:cy="-169.10715"
       sodipodi:rx="2.4107144"
       sodipodi:ry="2.3214285"
       d="m 319.28571,-169.10715 a 2.4107144,2.3214285 0 1 1 -4.82142,0 2.4107144,2.3214285 0 1 1 4.82142,0 z"
       transform="matrix(-1.1780923,-0.06717913,-0.0819313,1.0551988,451.93539,224.7778)" />
    <path
       transform="matrix(-0.88356925,-0.05038435,-0.06455193,0.83136873,361.54736,181.6047)"
       d="m 319.28571,-169.10715 a 2.4107144,2.3214285 0 1 1 -4.82142,0 2.4107144,2.3214285 0 1 1 4.82142,0 z"
       sodipodi:ry="2.3214285"
       sodipodi:rx="2.4107144"
       sodipodi:cy="-169.10715"
       sodipodi:cx="316.875"
       id="path6589-1-4-1"
       style="fill:#999999;fill-opacity:1;fill-rule:nonzero;stroke:none"
       sodipodi:type="arc" />
    <path
       style="fill:#008000;fill-opacity:1;fill-rule:nonzero;stroke:none"
       d="m 118.96769,37.3652 c 0.014,0.5344 3.67526,-0.8238 4.28929,-1.0588 0.67356,-0.2579 2.62737,0.094 2.35019,-0.028 -1.55151,-0.6855 -3.11345,-0.2672 -3.84052,-0.1885 -0.72708,0.079 -2.81488,0.679 -2.79896,1.2752 z"
       id="path6591-1-2-8"
       inkscape:connector-curvature="0"
       sodipodi:nodetypes="sssss" />
    <path
       sodipodi:nodetypes="sssss"
       inkscape:connector-curvature="0"
       id="path6593-5-7-4"
       d="m 119.12172,39.3125 c 0.014,0.5344 3.67527,-0.8238 4.28929,-1.0588 0.67357,-0.2579 2.62737,0.094 2.35019,-0.028 -1.5515,-0.6855 -3.11345,-0.2672 -3.84052,-0.1885 -0.72707,0.079 -2.81487,0.679 -2.79896,1.2752 z"
       style="fill:#008000;fill-opacity:1;fill-rule:nonzero;stroke:none" />
    <path
       style="fill:#008000;fill-opacity:1;fill-rule:nonzero;stroke:none"
       d="m 119.165,40.7316 c 0.014,0.5344 3.67527,-0.8238 4.28929,-1.0589 0.67356,-0.2578 2.62737,0.094 2.35019,-0.028 -1.55151,-0.6855 -3.11345,-0.2673 -3.84052,-0.1885 -0.72707,0.079 -2.81487,0.679 -2.79896,1.2752 z"
       id="path6595-2-7-9"
       inkscape:connector-curvature="0"
       sodipodi:nodetypes="sssss" />
    <path
       sodipodi:nodetypes="sssss"
       inkscape:connector-curvature="0"
       id="path6597-7-9-6"
       d="m 118.73512,36.0627 c 0.014,0.5344 3.67527,-0.8238 4.28929,-1.0588 0.67357,-0.2579 2.62737,0.094 2.35019,-0.028 -1.5515,-0.6855 -3.11345,-0.2673 -3.84052,-0.1885 -0.72707,0.079 -2.81487,0.679 -2.79896,1.2752 z"
       style="fill:#008000;fill-opacity:1;fill-rule:nonzero;stroke:none" />
    <path
       transform="matrix(-0.88356925,-0.05038435,-0.06455193,0.83136873,360.87931,183.7139)"
       d="m 286.60713,-157.94643 a 2.9464285,2.946429 0 1 1 -5.89285,0 2.9464285,2.946429 0 1 1 5.89285,0 z"
       sodipodi:ry="2.946429"
       sodipodi:rx="2.9464285"
       sodipodi:cy="-157.94643"
       sodipodi:cx="283.66071"
       id="path6599-6-3-3"
       style="fill:#00aa00;fill-opacity:1;fill-rule:nonzero;stroke:none"
       sodipodi:type="arc" />
    <path
       sodipodi:nodetypes="sssss"
       inkscape:connector-curvature="0"
       id="path6601-1-1-7"
       d="m 97.345667,19.8995 c 1.02915,1.2408 6.057103,-6.3207 6.886753,-7.606 0.91014,-1.41 5.60871,-2.9096 4.8066,-2.8675 -4.4899,0.2361 -6.93656,3.0828 -8.29237,4.1349 -1.355823,1.0522 -4.549093,4.9543 -3.400983,6.3386 z"
       style="fill:#00d400;fill-opacity:1;fill-rule:nonzero;stroke:none" />
    <path
       style="fill:#00d400;fill-opacity:1;fill-rule:nonzero;stroke:none"
       d="m 99.996367,20.0506 c 1.029153,1.2409 6.057113,-6.3206 6.886763,-7.606 0.91014,-1.41 5.60871,-2.9096 4.8066,-2.8674 -4.4899,0.236 -6.93656,3.0827 -8.29238,4.1349 -1.35581,1.0521 -4.549083,4.9542 -3.400983,6.3385 z"
       id="path6603-4-9-8"
       inkscape:connector-curvature="0"
       sodipodi:nodetypes="sssss" />
    <path
       sodipodi:nodetypes="sssss"
       inkscape:connector-curvature="0"
       id="path6605-2-8-8"
       d="m 108.39375,19.7275 c 0.89806,1.3285 6.66055,-5.7593 7.6152,-6.9664 1.04726,-1.3241 5.87045,-2.3996 5.06865,-2.4291 -4.48819,-0.1653 -7.20823,2.4537 -8.66252,3.3814 -1.45429,0.9277 -5.0232,4.5319 -4.02133,6.0141 z"
       style="fill:#00d400;fill-opacity:1;fill-rule:nonzero;stroke:none" />
    <path
       style="fill:#00d400;fill-opacity:1;fill-rule:nonzero;stroke:none"
       d="m 106.33917,20.4645 c 1.02915,1.2408 6.05711,-6.3207 6.88676,-7.606 0.91014,-1.4101 5.6087,-2.9097 4.8066,-2.8675 -4.4899,0.236 -6.93656,3.0828 -8.29238,4.1349 -1.35581,1.0521 -4.54908,4.9542 -3.40098,6.3386 z"
       id="path6607-3-6-2"
       inkscape:connector-curvature="0"
       sodipodi:nodetypes="sssss" />
    <path
       sodipodi:nodetypes="sssss"
       inkscape:connector-curvature="0"
       id="path6609-2-5-9"
       d="m 103.55445,19.9457 c 1.02915,1.2408 6.05711,-6.3207 6.88675,-7.606 0.91014,-1.41 5.60871,-2.9097 4.80661,-2.8675 -4.48991,0.2361 -6.93657,3.0828 -8.29238,4.1349 -1.35582,1.0521 -4.54908,4.9543 -3.40098,6.3386 z"
       style="fill:#00d400;fill-opacity:1;fill-rule:nonzero;stroke:none" />
    <path
       style="fill:#00d400;fill-opacity:1;fill-rule:nonzero;stroke:none"
       d="m 110.46465,19.9604 c 0.8776,1.3407 6.74632,-5.6701 7.71907,-6.8644 1.06712,-1.3102 5.90532,-2.3209 5.10419,-2.3612 -4.48441,-0.2256 -7.24355,2.357 -8.71154,3.2652 -1.468,0.9082 -5.09076,4.4647 -4.11172,5.9604 z"
       id="path6611-2-0-1"
       inkscape:connector-curvature="0"
       sodipodi:nodetypes="sssss" />
    <path
       sodipodi:nodetypes="sssss"
       inkscape:connector-curvature="0"
       id="path6613-1-2-3"
       d="m 113.30763,20.1995 c 0.87761,1.3407 6.74632,-5.6701 7.71907,-6.8644 1.06712,-1.3102 5.90532,-2.3209 5.1042,-2.3612 -4.48442,-0.2256 -7.24356,2.357 -8.71154,3.2652 -1.468,0.9082 -5.09076,4.4647 -4.11173,5.9604 z"
       style="fill:#00d400;fill-opacity:1;fill-rule:nonzero;stroke:none" />
    <path
       style="fill:#00d400;fill-opacity:1;fill-rule:nonzero;stroke:none"
       d="m 115.25091,21.0684 c 0.87761,1.3407 6.74632,-5.6701 7.71907,-6.8645 1.06712,-1.3101 5.90532,-2.3208 5.10419,-2.3611 -4.48441,-0.2257 -7.24355,2.357 -8.71154,3.2652 -1.468,0.9082 -5.09076,4.4647 -4.11172,5.9604 z"
       id="path6615-6-8-5"
       inkscape:connector-curvature="0"
       sodipodi:nodetypes="sssss" />
    <path
       sodipodi:nodetypes="sssss"
       inkscape:connector-curvature="0"
       id="path6617-8-6-9"
       d="m 96.273477,18.9899 c -0.43911,2.056 12.511763,2.3576 14.690303,2.3804 2.38985,0.025 8.32545,4.2883 7.54903,3.4075 -4.34614,-4.93 -9.72525,-5.6724 -12.12412,-6.4595 -2.39889,-0.7873 -9.626303,-1.6225 -10.115213,0.6716 z"
       style="fill:#00aa00;fill-opacity:1;fill-rule:nonzero;stroke:none" />
    <path
       style="fill:#00ff00;fill-opacity:1;fill-rule:nonzero;stroke:none"
       d="m 96.657827,20.5013 c -0.35305,1.2216 11.601443,1.6426 13.611673,1.6967 2.20521,0.059 7.7885,2.7195 7.05,2.1783 -4.13393,-3.0295 -9.11481,-3.5734 -11.34762,-4.0888 -2.23284,-0.5154 -8.921073,-1.1492 -9.314053,0.2138 z"
       id="path6619-5-0-8"
       inkscape:connector-curvature="0"
       sodipodi:nodetypes="sssss" />
    <path
       sodipodi:nodetypes="sssss"
       inkscape:connector-curvature="0"
       id="path6621-7-2-4"
       d="m 120.65532,13.9418 c -0.11575,0.5249 3.76788,-0.018 4.42096,-0.1165 0.71641,-0.1077 2.52824,0.6541 2.28866,0.4756 -1.34052,-1.0014 -2.95833,-0.9271 -3.68333,-1.0057 -0.72501,-0.079 -2.89745,0.061 -3.02629,0.6466 z"
       style="fill:#00d400;fill-opacity:1;fill-rule:nonzero;stroke:none" />
    <path
       style="fill:#00aa00;fill-opacity:1;fill-rule:nonzero;stroke:none"
       d="m 120.50626,15.2008 c -0.11575,0.5249 3.76788,-0.018 4.42096,-0.1165 0.71641,-0.1077 2.52824,0.6541 2.28866,0.4756 -1.34052,-1.0014 -2.95833,-0.9271 -3.68333,-1.0057 -0.72501,-0.079 -2.89745,0.061 -3.02629,0.6466 z"
       id="path6623-6-4-0"
       inkscape:connector-curvature="0"
       sodipodi:nodetypes="sssss" />
    <path
       sodipodi:nodetypes="sssss"
       inkscape:connector-curvature="0"
       id="path6625-1-8-7"
       d="m 120.38833,16.7196 c -0.11575,0.5249 3.76788,-0.018 4.42096,-0.1164 0.7164,-0.1078 2.52824,0.6541 2.28865,0.4755 -1.34051,-1.0014 -2.95832,-0.927 -3.68332,-1.0057 -0.72501,-0.079 -2.89745,0.061 -3.02629,0.6466 z"
       style="fill:#00aa00;fill-opacity:1;fill-rule:nonzero;stroke:none" />
    <path
       style="fill:#00aa00;fill-opacity:1;fill-rule:nonzero;stroke:none"
       d="m 120.05227,17.9861 c -0.11575,0.5249 3.76788,-0.018 4.42096,-0.1165 0.71641,-0.1077 2.52824,0.6541 2.28866,0.4756 -1.34051,-1.0014 -2.95833,-0.9271 -3.68333,-1.0057 -0.725,-0.079 -2.89745,0.061 -3.02629,0.6466 z"
       id="path6627-8-6-6"
       inkscape:connector-curvature="0"
       sodipodi:nodetypes="sssss" />
    <path
       sodipodi:nodetypes="sssss"
       inkscape:connector-curvature="0"
       id="path6629-9-5-3"
       d="m 119.63297,19.3042 c -0.11575,0.5249 3.76788,-0.018 4.42096,-0.1164 0.71641,-0.1078 2.52824,0.6541 2.28866,0.4755 -1.34052,-1.0014 -2.95833,-0.927 -3.68333,-1.0057 -0.72501,-0.079 -2.89745,0.061 -3.02629,0.6466 z"
       style="fill:#00aa00;fill-opacity:1;fill-rule:nonzero;stroke:none" />
    <path
       style="fill:#00aa00;fill-opacity:1;fill-rule:nonzero;stroke:none"
       d="m 117.87489,34.8953 c 0.014,0.5344 3.67527,-0.8238 4.28929,-1.0589 0.67357,-0.2578 2.62737,0.094 2.35019,-0.028 -1.5515,-0.6856 -3.11345,-0.2673 -3.84052,-0.1885 -0.72707,0.079 -2.81487,0.679 -2.79896,1.2752 z"
       id="path6631-2-0-6"
       inkscape:connector-curvature="0"
       sodipodi:nodetypes="sssss" />
    <path
       sodipodi:nodetypes="sssss"
       inkscape:connector-curvature="0"
       id="path6633-7-9-1"
       d="m 96.114987,27.4926 c 0.24711,0.5704 6.252693,-2.6374 7.256823,-3.1833 1.10154,-0.5988 4.75384,-1.1474 4.20561,-1.1478 -3.06877,0 -5.69777,1.1922 -6.9697,1.623 -1.271963,0.4308 -4.768943,2.072 -4.492733,2.7081 z"
       style="fill:#00ff00;fill-opacity:1;fill-rule:nonzero;stroke:none" />
    <path
       style="fill:#00aa00;fill-opacity:1;fill-rule:nonzero;stroke:none"
       d="m 106.00369,38.9122 c -0.33959,-0.6593 6.08757,-2.2651 7.17034,-2.5255 1.18784,-0.2858 3.89057,-2.4466 3.55605,-2.0523 -1.87242,2.2068 -4.50563,3.0869 -5.65307,3.6369 -1.14743,0.5501 -4.69491,1.6766 -5.07332,0.9409 z"
       id="path6635-9-0-5"
       inkscape:connector-curvature="0"
       sodipodi:nodetypes="sssss" />
    <path
       sodipodi:type="arc"
       style="fill:#000000;fill-opacity:1;fill-rule:nonzero;stroke:none"
       id="path6637-5-0-4"
       sodipodi:cx="316.875"
       sodipodi:cy="-169.10715"
       sodipodi:rx="2.4107144"
       sodipodi:ry="2.3214285"
       d="m 319.28571,-169.10715 a 2.4107144,2.3214285 0 1 1 -4.82142,0 2.4107144,2.3214285 0 1 1 4.82142,0 z"
       transform="matrix(-0.42542225,-0.02425913,-0.03227596,0.41568436,221.83012,103.0311)" />
  </g>
  <g
     inkscape:groupmode="layer"
     id="layer5"
     inkscape:label="Layer 5">
    <path
       style="opacity:0.98009997;fill:#00d400;fill-opacity:1;fill-rule:nonzero;stroke:none"
       d="m 40.722567,41.667752 c -1.30644,4.093308 1.64515,8.892526 2.68741,9.225155 1.04241,0.332252 -1.39682,-3.767494 -0.0905,-7.860514 1.30647,-4.093402 5.86372,-6.629866 4.82148,-6.962589 -1.0424,-0.332253 -6.11207,1.504928 -7.41842,5.597948 z"
       id="path3928-8-6-1-5-2-4-4-6-2"
       inkscape:connector-curvature="0"
       sodipodi:nodetypes="sssss" />
    <path
       sodipodi:nodetypes="ssssss"
       inkscape:connector-curvature="0"
       id="path3923-8-5-9-3-0-0-3-1-0"
       d="m 31.709067,50.154745 c 0.40101,1.582783 6.03691,1.153174 8.57956,1.126327 2.54264,-0.02655 4.72972,0.828999 4.71246,-0.803169 -0.0172,-1.632272 0.18506,-4.98851 -2.05001,-3.687788 -2.29041,1.332814 -0.94513,-1.654541 -3.51466,-0.584238 -2.40178,1.000469 -7.90864,3.233159 -7.72735,3.948872 z"
       style="opacity:0.98009997;fill:#00d400;fill-opacity:1;fill-rule:nonzero;stroke:none" />
    <path
       style="opacity:0.98999999;fill:#00d400;fill-opacity:1;fill-rule:nonzero;stroke:none"
       d="m 50.273397,41.651257 c 0.56222,4.296437 5.26288,7.576757 6.34382,7.475875 1.08097,-0.100484 -2.86058,-2.935876 -3.42276,-7.231914 -0.56222,-4.296437 2.46776,-8.427495 1.38682,-8.326612 -1.08096,0.100483 -4.87006,3.786613 -4.30788,8.082651 z"
       id="path3993-4-9-2-8-7-9-1-3-9"
       inkscape:connector-curvature="0"
       sodipodi:nodetypes="sssss" />
    <path
       sodipodi:nodetypes="ssssss"
       inkscape:connector-curvature="0"
       id="path3995-5-0-9-2-2-4-2-8-7"
       d="m 44.478357,50.601398 c 0.4723,1.590229 6.0467,1.106263 8.56944,1.056011 2.52272,-0.05015 4.7339,0.791801 4.64021,-0.851636 -0.0937,-1.64344 -0.0503,-5.024839 -2.20792,-3.694809 -2.2111,1.362968 -1.0158,-1.657385 -3.51627,-0.556218 -2.33725,1.029327 -7.69899,3.327742 -7.48546,4.046652 z"
       style="opacity:0.98999999;fill:#00d400;fill-opacity:1;fill-rule:nonzero;stroke:none" />
    <path
       sodipodi:nodetypes="ccccc"
       inkscape:connector-curvature="0"
       id="path6573-8-3-9-3"
       d="m 63.247557,12.5669 c -12.84894,-3.7999 -21.55578,1.2223 -32.33367,1.8334 l -0.49846,21.4958 c 9.44555,1.4721 20.81268,8.3483 30.66752,4.549 -0.92945,-5.2643 -4.46916,-12.3632 2.16461,-27.8782 z"
       style="fill:#00d400;fill-rule:evenodd;stroke:none" />
    <path
       sodipodi:nodetypes="sssss"
       inkscape:connector-curvature="0"
       id="path6575-8-3-3-7"
       d="m 28.362287,20.9329 c 1.14612,1.1463 5.42719,-6.8054 6.12996,-8.1549 0.77094,-1.4804 5.31021,-3.374 4.51461,-3.2634 -4.45351,0.6188 -6.61731,3.6597 -7.86722,4.8223 -1.24991,1.1625 -4.05595,5.3172 -2.77735,6.596 z"
       style="fill:#00d400;fill-opacity:1;fill-rule:nonzero;stroke:none" />
    <path
       style="fill:#00d400;fill-opacity:1;fill-rule:nonzero;stroke:none"
       d="m 30.933677,20.8989 c 1.14613,1.1462 5.42719,-6.8054 6.12996,-8.155 0.77095,-1.4804 5.31022,-3.3739 4.51462,-3.2634 -4.45351,0.6188 -6.61732,3.6598 -7.86723,4.8223 -1.24991,1.1626 -4.05594,5.3172 -2.77735,6.5961 z"
       id="path6577-2-4-4-2"
       inkscape:connector-curvature="0"
       sodipodi:nodetypes="sssss" />
    <path
       sodipodi:nodetypes="ccccc"
       inkscape:connector-curvature="0"
       id="path6579-4-1-4-6"
       d="m 31.413197,13.6712 -5.51181,8.597 -13.99147,3.0729 19.32899,0.5119 z"
       style="fill:#005500;fill-rule:evenodd;stroke:none" />
    <path
       sodipodi:nodetypes="sssss"
       inkscape:connector-curvature="0"
       id="path6581-5-1-6-0"
       d="m 30.016517,33.9043 c 0.37418,0.2854 1.58026,2.9952 2.53958,3.4532 1.15865,0.5531 14.6151,8.653 15.04857,9.0658 0.81251,0.7737 -11.35783,-9.5991 -12.84197,-10.5225 -0.64681,-0.4025 -5.51932,-2.5864 -4.74618,-1.9965 z"
       style="fill:#00d400;fill-opacity:1;fill-rule:nonzero;stroke:none" />
    <path
       style="fill:#00d400;fill-opacity:1;fill-rule:nonzero;stroke:none"
       d="m 31.010127,33.2772 c 0.35874,0.2346 1.77611,2.759 2.65588,3.0898 1.06253,0.3995 13.64731,6.6948 14.07486,7.0476 0.80141,0.6613 -11.02514,-8.0431 -12.41753,-8.7672 -0.60683,-0.3155 -5.05442,-1.8549 -4.31321,-1.3702 z"
       id="path6583-5-3-0-1"
       inkscape:connector-curvature="0"
       sodipodi:nodetypes="sssss" />
    <path
       sodipodi:nodetypes="ccccc"
       inkscape:connector-curvature="0"
       id="path6585-1-8-6-6"
       d="m 31.118967,25.6539 -19.70584,-0.1768 13.89741,4.2749 5.41517,6.4189 z"
       style="fill:#80ff80;fill-rule:evenodd;stroke:none" />
    <path
       sodipodi:type="arc"
       style="fill:#000000;fill-opacity:1;fill-rule:nonzero;stroke:none"
       id="path6587-7-7-6-5"
       sodipodi:cx="316.875"
       sodipodi:cy="-169.10715"
       sodipodi:rx="2.4107144"
       sodipodi:ry="2.3214285"
       d="m 319.28571,-169.10715 a 2.4107144,2.3214285 0 1 1 -4.82142,0 2.4107144,2.3214285 0 1 1 4.82142,0 z"
       transform="matrix(-1.1780923,-0.06717913,-0.0819313,1.0551988,387.93539,224.7778)" />
    <path
       transform="matrix(-0.88356925,-0.05038435,-0.06455193,0.83136873,297.54736,181.6047)"
       d="m 319.28571,-169.10715 a 2.4107144,2.3214285 0 1 1 -4.82142,0 2.4107144,2.3214285 0 1 1 4.82142,0 z"
       sodipodi:ry="2.3214285"
       sodipodi:rx="2.4107144"
       sodipodi:cy="-169.10715"
       sodipodi:cx="316.875"
       id="path6589-1-4-1-7"
       style="fill:#999999;fill-opacity:1;fill-rule:nonzero;stroke:none"
       sodipodi:type="arc" />
    <path
       style="fill:#008000;fill-opacity:1;fill-rule:nonzero;stroke:none"
       d="m 54.967687,37.3652 c 0.014,0.5344 3.67526,-0.8238 4.28929,-1.0588 0.67356,-0.2579 2.62737,0.094 2.35019,-0.028 -1.55151,-0.6855 -3.11345,-0.2672 -3.84052,-0.1885 -0.72708,0.079 -2.81488,0.679 -2.79896,1.2752 z"
       id="path6591-1-2-8-5"
       inkscape:connector-curvature="0"
       sodipodi:nodetypes="sssss" />
    <path
       sodipodi:nodetypes="sssss"
       inkscape:connector-curvature="0"
       id="path6593-5-7-4-4"
       d="m 55.121717,39.3125 c 0.014,0.5344 3.67527,-0.8238 4.28929,-1.0588 0.67356,-0.2579 2.62737,0.094 2.35019,-0.028 -1.5515,-0.6855 -3.11345,-0.2672 -3.84052,-0.1885 -0.72707,0.079 -2.81487,0.679 -2.79896,1.2752 z"
       style="fill:#008000;fill-opacity:1;fill-rule:nonzero;stroke:none" />
    <path
       style="fill:#008000;fill-opacity:1;fill-rule:nonzero;stroke:none"
       d="m 55.164997,40.7316 c 0.014,0.5344 3.67527,-0.8238 4.28929,-1.0589 0.67356,-0.2578 2.62737,0.094 2.35019,-0.028 -1.55151,-0.6855 -3.11345,-0.2673 -3.84052,-0.1885 -0.72707,0.079 -2.81487,0.679 -2.79896,1.2752 z"
       id="path6595-2-7-9-1"
       inkscape:connector-curvature="0"
       sodipodi:nodetypes="sssss" />
    <path
       sodipodi:nodetypes="sssss"
       inkscape:connector-curvature="0"
       id="path6597-7-9-6-2"
       d="m 54.735117,36.0627 c 0.014,0.5344 3.67527,-0.8238 4.28929,-1.0588 0.67357,-0.2579 2.62737,0.094 2.35019,-0.028 -1.5515,-0.6855 -3.11345,-0.2673 -3.84052,-0.1885 -0.72707,0.079 -2.81487,0.679 -2.79896,1.2752 z"
       style="fill:#008000;fill-opacity:1;fill-rule:nonzero;stroke:none" />
    <path
       transform="matrix(-0.88356925,-0.05038435,-0.06455193,0.83136873,296.87931,183.7139)"
       d="m 286.60713,-157.94643 a 2.9464285,2.946429 0 1 1 -5.89285,0 2.9464285,2.946429 0 1 1 5.89285,0 z"
       sodipodi:ry="2.946429"
       sodipodi:rx="2.9464285"
       sodipodi:cy="-157.94643"
       sodipodi:cx="283.66071"
       id="path6599-6-3-3-0"
       style="fill:#00aa00;fill-opacity:1;fill-rule:nonzero;stroke:none"
       sodipodi:type="arc" />
    <path
       sodipodi:nodetypes="sssss"
       inkscape:connector-curvature="0"
       id="path6601-1-1-7-0"
       d="m 33.345667,19.8995 c 1.02915,1.2408 6.0571,-6.3207 6.88675,-7.606 0.91014,-1.41 5.60871,-2.9096 4.8066,-2.8675 -4.4899,0.2361 -6.93656,3.0828 -8.29237,4.1349 -1.35582,1.0522 -4.54909,4.9543 -3.40098,6.3386 z"
       style="fill:#00d400;fill-opacity:1;fill-rule:nonzero;stroke:none" />
    <path
       style="fill:#00d400;fill-opacity:1;fill-rule:nonzero;stroke:none"
       d="m 35.996367,20.0506 c 1.02915,1.2409 6.05711,-6.3206 6.88676,-7.606 0.91014,-1.41 5.6087,-2.9096 4.8066,-2.8674 -4.4899,0.236 -6.93656,3.0827 -8.29238,4.1349 -1.35581,1.0521 -4.54908,4.9542 -3.40098,6.3385 z"
       id="path6603-4-9-8-1"
       inkscape:connector-curvature="0"
       sodipodi:nodetypes="sssss" />
    <path
       sodipodi:nodetypes="sssss"
       inkscape:connector-curvature="0"
       id="path6605-2-8-8-4"
       d="m 44.393737,19.7275 c 0.89807,1.3285 6.66056,-5.7593 7.61521,-6.9664 1.04726,-1.3241 5.87045,-2.3996 5.06865,-2.4291 -4.48819,-0.1653 -7.20823,2.4537 -8.66252,3.3814 -1.45429,0.9277 -5.0232,4.5319 -4.02134,6.0141 z"
       style="fill:#00d400;fill-opacity:1;fill-rule:nonzero;stroke:none" />
    <path
       style="fill:#00d400;fill-opacity:1;fill-rule:nonzero;stroke:none"
       d="m 42.339167,20.4645 c 1.02915,1.2408 6.05711,-6.3207 6.88676,-7.606 0.91014,-1.4101 5.6087,-2.9097 4.8066,-2.8675 -4.4899,0.236 -6.93656,3.0828 -8.29238,4.1349 -1.35581,1.0521 -4.54908,4.9542 -3.40098,6.3386 z"
       id="path6607-3-6-2-6"
       inkscape:connector-curvature="0"
       sodipodi:nodetypes="sssss" />
    <path
       sodipodi:nodetypes="sssss"
       inkscape:connector-curvature="0"
       id="path6609-2-5-9-0"
       d="m 39.554447,19.9457 c 1.02915,1.2408 6.05711,-6.3207 6.88675,-7.606 0.91014,-1.41 5.60871,-2.9097 4.80661,-2.8675 -4.48991,0.2361 -6.93657,3.0828 -8.29238,4.1349 -1.35582,1.0521 -4.54908,4.9543 -3.40098,6.3386 z"
       style="fill:#00d400;fill-opacity:1;fill-rule:nonzero;stroke:none" />
    <path
       style="fill:#00d400;fill-opacity:1;fill-rule:nonzero;stroke:none"
       d="m 46.464647,19.9604 c 0.8776,1.3407 6.74632,-5.6701 7.71907,-6.8644 1.06712,-1.3102 5.90532,-2.3209 5.10419,-2.3612 -4.48441,-0.2256 -7.24355,2.357 -8.71154,3.2652 -1.468,0.9082 -5.09076,4.4647 -4.11172,5.9604 z"
       id="path6611-2-0-1-7"
       inkscape:connector-curvature="0"
       sodipodi:nodetypes="sssss" />
    <path
       sodipodi:nodetypes="sssss"
       inkscape:connector-curvature="0"
       id="path6613-1-2-3-1"
       d="m 49.307627,20.1995 c 0.87761,1.3407 6.74632,-5.6701 7.71907,-6.8644 1.06712,-1.3102 5.90532,-2.3209 5.1042,-2.3612 -4.48442,-0.2256 -7.24356,2.357 -8.71154,3.2652 -1.468,0.9082 -5.09076,4.4647 -4.11173,5.9604 z"
       style="fill:#00d400;fill-opacity:1;fill-rule:nonzero;stroke:none" />
    <path
       style="fill:#00d400;fill-opacity:1;fill-rule:nonzero;stroke:none"
       d="m 51.250907,21.0684 c 0.87761,1.3407 6.74632,-5.6701 7.71907,-6.8645 1.06712,-1.3101 5.90532,-2.3208 5.10419,-2.3611 -4.48441,-0.2257 -7.24355,2.357 -8.71154,3.2652 -1.468,0.9082 -5.09076,4.4647 -4.11172,5.9604 z"
       id="path6615-6-8-5-7"
       inkscape:connector-curvature="0"
       sodipodi:nodetypes="sssss" />
    <path
       sodipodi:nodetypes="sssss"
       inkscape:connector-curvature="0"
       id="path6617-8-6-9-7"
       d="m 32.273477,18.9899 c -0.43911,2.056 12.51176,2.3576 14.6903,2.3804 2.38985,0.025 8.32545,4.2883 7.54903,3.4075 -4.34615,-4.93 -9.72525,-5.6724 -12.12412,-6.4595 -2.39889,-0.7873 -9.6263,-1.6225 -10.11521,0.6716 z"
       style="fill:#00aa00;fill-opacity:1;fill-rule:nonzero;stroke:none" />
    <path
       style="fill:#00ff00;fill-opacity:1;fill-rule:nonzero;stroke:none"
       d="m 32.657827,20.5013 c -0.35305,1.2216 11.60144,1.6426 13.61167,1.6967 2.20521,0.059 7.7885,2.7195 7.05,2.1783 -4.13393,-3.0295 -9.11481,-3.5734 -11.34762,-4.0888 -2.23284,-0.5154 -8.92107,-1.1492 -9.31405,0.2138 z"
       id="path6619-5-0-8-7"
       inkscape:connector-curvature="0"
       sodipodi:nodetypes="sssss" />
    <path
       sodipodi:nodetypes="sssss"
       inkscape:connector-curvature="0"
       id="path6621-7-2-4-7"
       d="m 56.655317,13.9418 c -0.11575,0.5249 3.76788,-0.018 4.42096,-0.1165 0.71641,-0.1077 2.52824,0.6541 2.28866,0.4756 -1.34052,-1.0014 -2.95833,-0.9271 -3.68333,-1.0057 -0.72501,-0.079 -2.89745,0.061 -3.02629,0.6466 z"
       style="fill:#00d400;fill-opacity:1;fill-rule:nonzero;stroke:none" />
    <path
       style="fill:#00aa00;fill-opacity:1;fill-rule:nonzero;stroke:none"
       d="m 56.506257,15.2008 c -0.11575,0.5249 3.76788,-0.018 4.42096,-0.1165 0.71641,-0.1077 2.52824,0.6541 2.28866,0.4756 -1.34052,-1.0014 -2.95833,-0.9271 -3.68333,-1.0057 -0.72501,-0.079 -2.89745,0.061 -3.02629,0.6466 z"
       id="path6623-6-4-0-3"
       inkscape:connector-curvature="0"
       sodipodi:nodetypes="sssss" />
    <path
       sodipodi:nodetypes="sssss"
       inkscape:connector-curvature="0"
       id="path6625-1-8-7-3"
       d="m 56.388327,16.7196 c -0.11575,0.5249 3.76788,-0.018 4.42096,-0.1164 0.7164,-0.1078 2.52824,0.6541 2.28865,0.4755 -1.34051,-1.0014 -2.95832,-0.927 -3.68332,-1.0057 -0.72501,-0.079 -2.89745,0.061 -3.02629,0.6466 z"
       style="fill:#00aa00;fill-opacity:1;fill-rule:nonzero;stroke:none" />
    <path
       style="fill:#00aa00;fill-opacity:1;fill-rule:nonzero;stroke:none"
       d="m 56.052267,17.9861 c -0.11575,0.5249 3.76788,-0.018 4.42096,-0.1165 0.71641,-0.1077 2.52824,0.6541 2.28866,0.4756 -1.34051,-1.0014 -2.95833,-0.9271 -3.68333,-1.0057 -0.72501,-0.079 -2.89745,0.061 -3.02629,0.6466 z"
       id="path6627-8-6-6-5"
       inkscape:connector-curvature="0"
       sodipodi:nodetypes="sssss" />
    <path
       sodipodi:nodetypes="sssss"
       inkscape:connector-curvature="0"
       id="path6629-9-5-3-9"
       d="m 55.632967,19.3042 c -0.11575,0.5249 3.76788,-0.018 4.42096,-0.1164 0.71641,-0.1078 2.52824,0.6541 2.28866,0.4755 -1.34052,-1.0014 -2.95833,-0.927 -3.68333,-1.0057 -0.72501,-0.079 -2.89745,0.061 -3.02629,0.6466 z"
       style="fill:#00aa00;fill-opacity:1;fill-rule:nonzero;stroke:none" />
    <path
       style="fill:#00aa00;fill-opacity:1;fill-rule:nonzero;stroke:none"
       d="m 53.874887,34.8953 c 0.014,0.5344 3.67527,-0.8238 4.28929,-1.0589 0.67357,-0.2578 2.62737,0.094 2.35019,-0.028 -1.5515,-0.6856 -3.11345,-0.2673 -3.84052,-0.1885 -0.72707,0.079 -2.81487,0.679 -2.79896,1.2752 z"
       id="path6631-2-0-6-9"
       inkscape:connector-curvature="0"
       sodipodi:nodetypes="sssss" />
    <path
       sodipodi:nodetypes="sssss"
       inkscape:connector-curvature="0"
       id="path6633-7-9-1-8"
       d="m 32.114987,27.4926 c 0.24711,0.5704 6.25269,-2.6374 7.25682,-3.1833 1.10154,-0.5988 4.75384,-1.1474 4.20561,-1.1478 -3.06877,0 -5.69777,1.1922 -6.9697,1.623 -1.27196,0.4308 -4.76894,2.072 -4.49273,2.7081 z"
       style="fill:#00ff00;fill-opacity:1;fill-rule:nonzero;stroke:none" />
    <path
       style="fill:#00aa00;fill-opacity:1;fill-rule:nonzero;stroke:none"
       d="m 42.003687,38.9122 c -0.33959,-0.6593 6.08757,-2.2651 7.17034,-2.5255 1.18784,-0.2858 3.89057,-2.4466 3.55605,-2.0523 -1.87242,2.2068 -4.50563,3.0869 -5.65307,3.6369 -1.14743,0.5501 -4.69491,1.6766 -5.07332,0.9409 z"
       id="path6635-9-0-5-1"
       inkscape:connector-curvature="0"
       sodipodi:nodetypes="sssss" />
    <path
       sodipodi:type="arc"
       style="fill:#000000;fill-opacity:1;fill-rule:nonzero;stroke:none"
       id="path6637-5-0-4-8"
       sodipodi:cx="316.875"
       sodipodi:cy="-169.10715"
       sodipodi:rx="2.4107144"
       sodipodi:ry="2.3214285"
       d="m 319.28571,-169.10715 a 2.4107144,2.3214285 0 1 1 -4.82142,0 2.4107144,2.3214285 0 1 1 4.82142,0 z"
       transform="matrix(-0.42542225,-0.02425913,-0.03227596,0.41568436,157.83012,103.0311)" />
  </g>
</svg>
