<?xml version="1.0" encoding="UTF-8" standalone="no"?>
<!-- Created with Inkscape (http://www.inkscape.org/) -->

<svg
   xmlns:dc="http://purl.org/dc/elements/1.1/"
   xmlns:cc="http://creativecommons.org/ns#"
   xmlns:rdf="http://www.w3.org/1999/02/22-rdf-syntax-ns#"
   xmlns:svg="http://www.w3.org/2000/svg"
   xmlns="http://www.w3.org/2000/svg"
   xmlns:xlink="http://www.w3.org/1999/xlink"
   xmlns:sodipodi="http://sodipodi.sourceforge.net/DTD/sodipodi-0.dtd"
   xmlns:inkscape="http://www.inkscape.org/namespaces/inkscape"
   width="64"
   height="64"
   id="svg2985"
   version="1.1"
   inkscape:version="0.48.5 r10040"
   sodipodi:docname="New document 2">
  <defs
     id="defs2987">
    <linearGradient
       id="linearGradient3016">
      <stop
         style="stop-color:#80ffb3;stop-opacity:1;"
         offset="0"
         id="stop3018" />
      <stop
         style="stop-color:#80dfb3;stop-opacity:0.98214287;"
         offset="1"
         id="stop3020" />
    </linearGradient>
    <linearGradient
       inkscape:collect="always"
       xlink:href="#linearGradient3016"
       id="linearGradient3022"
       x1="22.589285"
       y1="14.571428"
       x2="18.660713"
       y2="16"
       gradientUnits="userSpaceOnUse" />
  </defs>
  <sodipodi:namedview
     id="base"
     pagecolor="#ffffff"
     bordercolor="#666666"
     borderopacity="1.0"
     inkscape:pageopacity="0.0"
     inkscape:pageshadow="2"
     inkscape:zoom="5.6"
     inkscape:cx="27.658897"
     inkscape:cy="34.6357"
     inkscape:document-units="px"
     inkscape:current-layer="layer1"
     showgrid="true"
     gridtolerance="1"
     objecttolerance="1"
     guidetolerance="1"
     inkscape:window-width="1366"
     inkscape:window-height="706"
     inkscape:window-x="-8"
     inkscape:window-y="-8"
     inkscape:window-maximized="1">
    <inkscape:grid
       type="xygrid"
       id="grid2993"
       empspacing="5"
       visible="true"
       enabled="true"
       snapvisiblegridlinesonly="true" />
  </sodipodi:namedview>
  <metadata
     id="metadata2990">
    <rdf:RDF>
      <cc:Work
         rdf:about="">
        <dc:format>image/svg+xml</dc:format>
        <dc:type
           rdf:resource="http://purl.org/dc/dcmitype/StillImage" />
        <dc:title></dc:title>
      </cc:Work>
    </rdf:RDF>
  </metadata>
  <g
     inkscape:label="Layer 1"
     inkscape:groupmode="layer"
     id="layer1"
     transform="translate(0,-988.36218)">
    <g
       id="g3930"
       transform="matrix(-1.9308461,0,0,1.8355289,75.829755,-854.85214)">
      <path
         style="fill:#80ffb3;fill-opacity:1;fill-rule:nonzero;stroke:none"
         d="m 26.303476,1030.5516 c 0,2.3409 -2.212015,4.3428 -2.778635,4.3428 -0.566621,0 1.282447,-1.724 1.282447,-4.0647 0,-2.3409 -1.849068,-4.4123 -1.282447,-4.4123 0.56662,0 2.778635,1.7935 2.778635,4.1342 z"
         id="path3928"
         inkscape:connector-curvature="0"
         sodipodi:nodetypes="sssss" />
      <path
         sodipodi:nodetypes="ssssss"
         inkscape:connector-curvature="0"
         id="path3923"
         d="m 30.273107,1034.6992 c -0.199008,0.8646 -3.120073,0.663 -4.437003,0.663 -1.316929,0 -2.44488,0.4789 -2.44488,-0.4104 0,-0.8893 -0.123151,-2.7165 1.041466,-2.0208 1.193454,0.7129 0.480402,-0.9068 1.816967,-0.3385 1.249312,0.5312 4.113419,1.7158 4.02345,2.1067 z"
         style="fill:#005544;fill-opacity:1;fill-rule:nonzero;stroke:none" />
    </g>
    <g
       transform="matrix(-1.7705607,0.73222399,0.77024766,1.6831561,-711.99876,-718.00189)"
       id="g3991">
      <path
         sodipodi:nodetypes="sssss"
         inkscape:connector-curvature="0"
         id="path3993"
         d="m 26.303476,1030.5516 c 0,2.3409 -2.212015,4.3428 -2.778635,4.3428 -0.566621,0 1.282447,-1.724 1.282447,-4.0647 0,-2.3409 -1.849068,-4.4123 -1.282447,-4.4123 0.56662,0 2.778635,1.7935 2.778635,4.1342 z"
         style="fill:#80ffb3;fill-opacity:1;fill-rule:nonzero;stroke:none" />
      <path
         style="fill:#005544;fill-opacity:1;fill-rule:nonzero;stroke:none"
         d="m 30.273107,1034.6992 c -0.199008,0.8646 -3.120073,0.663 -4.437003,0.663 -1.316929,0 -2.44488,0.4789 -2.44488,-0.4104 0,-0.8893 -0.123151,-2.7165 1.041466,-2.0208 1.193454,0.7129 0.480402,-0.9068 1.816967,-0.3385 1.249312,0.5312 4.113419,1.7158 4.02345,2.1067 z"
         id="path3995"
         inkscape:connector-curvature="0"
         sodipodi:nodetypes="ssssss" />
    </g>
    <g
       id="g3939"
       transform="matrix(-1.5228089,-1.1285036,-1.1871056,1.4476346,1257.9899,-429.55077)">
      <path
         style="fill:#55ff99;fill-opacity:1;fill-rule:nonzero;stroke:none"
         d="m 15.87656,1015.2054 c 0,2.4106 2.45392,4.4721 3.082505,4.4721 0.628587,0 -1.422695,-1.7753 -1.422695,-4.1858 0,-2.4106 2.051282,-4.5437 1.422695,-4.5437 -0.628585,0 -3.082505,1.8469 -3.082505,4.2574 z"
         id="path3917"
         inkscape:connector-curvature="0"
         sodipodi:nodetypes="sssss" />
      <path
         style="fill:#55ff99;fill-opacity:1;fill-rule:nonzero;stroke:none"
         d="m 18.118034,1019.6827 c 0,0.3923 0.879936,1.9625 1.335498,1.9625 0.45556,0 0.377605,-1.3913 0.377605,-1.7836 0,-0.3923 -0.511235,-0.9965 -0.966795,-0.9965 -0.455561,0 -0.746308,0.4253 -0.746308,0.8176 z"
         id="path3919"
         inkscape:connector-curvature="0"
         sodipodi:nodetypes="sssss" />
      <path
         style="fill:#00aa44;fill-rule:evenodd;stroke:none"
         d="m 18.529161,1018.0951 -1.085744,0.8252 0.729738,0.7966 1.085744,-0.8252 z"
         id="path3921"
         inkscape:connector-curvature="0"
         inkscape:transform-center-y="-0.46509364" />
    </g>
    <g
       id="g3944"
       transform="matrix(1.9308461,0,0,2.122825,-16.923554,-1134.8577)">
      <path
         sodipodi:nodetypes="sssss"
         inkscape:connector-curvature="0"
         id="path3131"
         d="m 29.737309,1015.9732 c 0,3.1207 0.101436,5.6349 -2.652594,5.5793 -5.56016,-0.1122 -5.632732,-2.6257 -4.356283,-5.6954 1.198216,-2.8815 0.254286,-4.8839 3.008877,-4.8839 2.754591,0 4,1.8793 4,5 z"
         style="fill:#80ffb3;fill-opacity:1;fill-rule:nonzero;stroke:none" />
      <path
         sodipodi:nodetypes="sssss"
         inkscape:connector-curvature="0"
         id="path3134"
         d="m 30.431422,1018.0973 c 0.376555,2.0128 0.78407,5.6094 -4.182693,3.8872 -2.160973,-0.7493 -7.315816,1.9616 -3.972131,-5.202 0.607204,-1.3009 1.77857,-0.8186 3.209738,-0.8186 1.431169,0 4.651681,0.5651 4.945086,2.1334 z"
         style="fill:#008066;fill-opacity:1;fill-rule:nonzero;stroke:none" />
      <path
         sodipodi:nodetypes="sssss"
         inkscape:connector-curvature="0"
         id="path3137"
         d="m 29.610097,29 c 0,1.377295 -6.296435,0.149738 -6.976366,0.149738 C 21.9538,29.149738 23,27.086201 23,25.708906 c 0,-1.377295 0.847836,-2.809487 1.527767,-2.809487 0.679931,0 5.08233,4.723286 5.08233,6.100581 z"
         style="fill:#008066;fill-opacity:1;fill-rule:nonzero;stroke:none"
         transform="translate(0,988.36218)" />
    </g>
    <g
       id="g3949"
       transform="matrix(1.9308461,0,0,1.8355289,-15.237321,-838.11395)">
      <path
         sodipodi:nodetypes="sssss"
         inkscape:connector-curvature="0"
         id="path3123"
         d="m 25.855648,998.77762 c -0.212828,0.472 -0.271686,0.6449 -0.293427,1.1046 -0.02207,0.46668 -0.467458,-1.0184 -0.283324,-1.52004 0.16567,-0.45129 1.452973,-1.30213 1.906834,-1.34756 0.45386,-0.0454 -1.132406,1.32473 -1.330083,1.763 z"
         style="fill:#00aa44;fill-opacity:1;fill-rule:nonzero;stroke:none" />
      <path
         sodipodi:nodetypes="sssss"
         inkscape:connector-curvature="0"
         id="path2995"
         d="m 30.178571,14 c 0,2.761424 -2.511166,3.88039 -5.089286,5 -4.968367,2.157632 -5.2536,-2.074262 -5.089286,-5 0.154842,-2.757079 2.278551,-5 5.089286,-5 2.810735,0 5.089286,2.238576 5.089286,5 z"
         style="fill:#80ffb3;fill-opacity:1;fill-rule:nonzero;stroke:none"
         transform="translate(0,988.36218)" />
      <path
         sodipodi:nodetypes="sssss"
         inkscape:connector-curvature="0"
         id="path2997"
         d="M 23.839286,15.142857 C 23.839286,15.971284 21.263942,17 20.267857,17 c -0.996085,0 -1.821428,-0.493004 -1.821428,-1.321429 0,-0.828427 0.271772,-1.589284 1.267857,-1.589284 0.996085,0 4.125,0.225141 4.125,1.05357 z"
         style="fill:url(#linearGradient3022);fill-opacity:1;fill-rule:nonzero;stroke:none"
         transform="translate(0,988.36218)" />
      <path
         sodipodi:nodetypes="sssss"
         inkscape:connector-curvature="0"
         id="path3116"
         d="m 22.725047,1000.4277 c 0.331828,0.3975 0.461718,0.5259 0.865859,0.746 0.410297,0.2235 -1.120308,-0.024 -1.491381,-0.4084 -0.333789,-0.3459 -0.537646,-1.87548 -0.380482,-2.30368 0.15719,-0.42818 0.697887,1.59698 1.006004,1.96608 z"
         style="fill:#00aa44;fill-opacity:1;fill-rule:nonzero;stroke:none" />
      <path
         transform="matrix(0.82608696,0,0,1.2727273,3.7247669,984.56835)"
         d="m 22.187499,13.419642 c 0,0.271212 -0.229853,0.491072 -0.513392,0.491072 -0.283539,0 -0.513393,-0.21986 -0.513393,-0.491072 0,-0.271211 0.229854,-0.491071 0.513393,-0.491071 0.283539,0 0.513392,0.21986 0.513392,0.491071 z"
         sodipodi:ry="0.49107143"
         sodipodi:rx="0.51339287"
         sodipodi:cy="13.419642"
         sodipodi:cx="21.674107"
         id="path3000"
         style="fill:#000000;fill-opacity:1;fill-rule:nonzero;stroke:none"
         sodipodi:type="arc" />
      <path
         transform="matrix(0.80225988,0,0,0.925,3.9805289,989.43785)"
         d="m 26,14.044642 c 0,0.493112 -0.353775,0.892858 -0.790178,0.892858 -0.436404,0 -0.790179,-0.399746 -0.790179,-0.892858 0,-0.493111 0.353775,-0.892857 0.790179,-0.892857 0.436403,0 0.790178,0.399746 0.790178,0.892857 z"
         sodipodi:ry="0.89285713"
         sodipodi:rx="0.79017854"
         sodipodi:cy="14.044642"
         sodipodi:cx="25.209822"
         id="path3002"
         style="fill:#000000;fill-opacity:1;fill-rule:nonzero;stroke:none"
         sodipodi:type="arc" />
      <path
         transform="translate(0,988.36218)"
         d="m 24.821428,13.776786 c 0,0.172589 -0.07995,0.3125 -0.178571,0.3125 -0.09862,0 -0.178572,-0.139911 -0.178572,-0.3125 0,-0.172589 0.07995,-0.3125 0.178572,-0.3125 0.09862,0 0.178571,0.139911 0.178571,0.3125 z"
         sodipodi:ry="0.3125"
         sodipodi:rx="0.17857143"
         sodipodi:cy="13.776786"
         sodipodi:cx="24.642857"
         id="path3004"
         style="fill:#ffffff;fill-opacity:1;fill-rule:nonzero;stroke:none"
         sodipodi:type="arc" />
      <path
         sodipodi:nodetypes="sssss"
         inkscape:connector-curvature="0"
         id="path3118"
         d="m 30.225657,15.65473 c 0,1.028614 -1.701771,2.099224 -2.107115,2.099224 -0.405343,0 -0.970693,-2.948862 -0.970693,-3.977476 0,-1.028613 2.096363,-1.310041 2.501706,-1.310041 0.405344,0 0.576102,2.15968 0.576102,3.188293 z"
         style="fill:#00aa44;fill-opacity:1;fill-rule:nonzero;stroke:none"
         transform="translate(0,988.36218)" />
      <path
         style="fill:#00aa44;fill-opacity:1;fill-rule:nonzero;stroke:none"
         d="m 25.668792,998.91996 c -0.07474,0.51234 -0.08376,0.69476 0.02183,1.14274 0.107179,0.4547 -0.729625,-0.85052 -0.690622,-1.38346 0.0351,-0.47945 1.038614,-1.65165 1.462458,-1.8202 0.42385,-0.16853 -0.724203,1.58517 -0.793662,2.06092 z"
         id="path3127"
         inkscape:connector-curvature="0"
         sodipodi:nodetypes="sssss" />
      <path
         sodipodi:nodetypes="sssss"
         inkscape:connector-curvature="0"
         id="path3108"
         d="m 31.473214,11.232143 c 0.02044,1.220774 -2.965654,0.752159 -4.575892,0.178572 -1.557919,-0.554951 -3.994873,-0.728664 -4.174108,-1.5178579 -0.283946,-1.2502512 2.43589,-1.9642856 4.174108,-1.9642856 1.738217,0 4.55443,2.0216614 4.575892,3.3035715 z"
         style="fill:#00aa44;fill-opacity:1;fill-rule:nonzero;stroke:none"
         transform="translate(-1.6517857,989.35325)" />
      <path
         style="fill:#00aa44;fill-opacity:1;fill-rule:nonzero;stroke:none"
         d="m 21.614577,1000.2644 c -0.212828,0.472 -0.271686,0.6449 -0.293427,1.1046 -0.02207,0.4667 -0.467458,-1.0184 -0.283324,-1.52004 0.16567,-0.45129 1.452973,-1.30213 1.906834,-1.34756 0.45386,-0.0454 -1.132406,1.32473 -1.330083,1.763 z"
         id="path3114"
         inkscape:connector-curvature="0"
         sodipodi:nodetypes="sssss" />
      <path
         transform="translate(0,988.36218)"
         d="m 22.053572,13.040178 c 0,0.135606 -0.05996,0.245536 -0.133929,0.245536 -0.07397,0 -0.133928,-0.10993 -0.133928,-0.245536 0,-0.135605 0.05996,-0.245535 0.133928,-0.245535 0.07397,0 0.133929,0.10993 0.133929,0.245535 z"
         sodipodi:ry="0.24553572"
         sodipodi:rx="0.13392857"
         sodipodi:cy="13.040178"
         sodipodi:cx="21.919643"
         id="path3006"
         style="fill:#ffffff;fill-opacity:1;fill-rule:nonzero;stroke:none"
         sodipodi:type="arc" />
      <path
         sodipodi:nodetypes="sssss"
         inkscape:connector-curvature="0"
         id="path3046"
         d="m 24.464286,17.214286 c 0,0.345178 -1.337902,1.517857 -1.941964,1.517857 -0.604061,0 -1.227678,-0.503036 -1.227678,-0.848214 0,-0.345178 0.578974,-0.357143 1.183035,-0.357143 0.604062,0 1.986607,-0.657678 1.986607,-0.3125 z"
         style="fill:#2ca05a;fill-opacity:1;fill-rule:nonzero;stroke:none"
         transform="translate(0,988.36218)" />
      <path
         sodipodi:nodetypes="sssss"
         inkscape:connector-curvature="0"
         id="path3049"
         d="m 24.352678,17.147321 c 0,0.135605 -1.442871,0.714286 -1.763393,0.714286 -0.320522,0 -1.160713,0.0017 -1.160713,-0.133929 0,-0.135606 0.840192,-0.15625 1.160714,-0.15625 0.320522,0 1.763392,-0.559713 1.763392,-0.424107 z"
         style="fill:#ffffff;fill-opacity:1;fill-rule:nonzero;stroke:none"
         transform="translate(0,988.36218)" />
      <path
         sodipodi:nodetypes="sssss"
         inkscape:connector-curvature="0"
         id="path3111"
         d="m 20.839217,999.97125 c -0.354425,0.37745 -0.466179,0.52195 -0.635803,0.94975 -0.172259,0.4344 -0.111933,-1.11505 0.224929,-1.52979 0.303097,-0.37321 1.796763,-0.76056 2.240824,-0.65634 0.44406,0.10423 -1.500835,0.88589 -1.82995,1.23638 z"
         style="fill:#00aa44;fill-opacity:1;fill-rule:nonzero;stroke:none" />
      <path
         sodipodi:nodetypes="sssss"
         inkscape:connector-curvature="0"
         id="path3129"
         d="m 25.7089,998.83878 c 0.139933,0.4985 0.20583,0.66884 0.484372,1.03524 0.282712,0.37188 -1.012314,-0.48058 -1.193272,-0.98337 -0.162785,-0.45234 0.277715,-1.93121 0.596475,-2.25746 0.318774,-0.32625 -0.01746,1.74267 0.112428,2.20559 z"
         style="fill:#00aa44;fill-opacity:1;fill-rule:nonzero;stroke:none" />
      <path
         sodipodi:nodetypes="sssss"
         inkscape:connector-curvature="0"
         id="path3052"
         d="m 30.312184,1001.0637 c -0.06143,0.2768 -2.227305,0.7968 -4.874996,0.2092 -2.64769,-0.5876 -4.7702,-2.10023 -4.708767,-2.37704 0.06143,-0.2768 2.149615,1.32274 4.797305,1.91034 2.647691,0.5877 4.847891,-0.019 4.786458,0.2575 z"
         style="fill:#005544;fill-opacity:1;fill-rule:nonzero;stroke:none" />
      <path
         sodipodi:nodetypes="ssssss"
         inkscape:connector-curvature="0"
         id="path3055"
         d="m 23.299085,7.8833844 c 0,0.7889781 -0.63382,3.6382796 -0.870513,3.6382796 -0.236694,0 0.04494,-0.450189 0.04494,-1.239167 0,-0.7889786 -1.544322,-2.4702916 -1.307628,-2.4702916 0.118347,0 0.872619,1.4936153 1.376333,1.4127878 0.503714,-0.080827 0.756871,-1.7360979 0.756871,-1.3416088 z"
         style="fill:#008066;fill-opacity:1;fill-rule:nonzero;stroke:none"
         transform="translate(0,988.36218)" />
      <path
         transform="translate(0,988.36218)"
         sodipodi:nodetypes="ssssss"
         inkscape:connector-curvature="0"
         id="path3057"
         d="m 25.540666,11.104752 c 0,0.801306 -0.01958,1.478512 -0.167739,1.60873 -0.121172,0.106501 -0.66916,-3.6585877 -0.654789,-3.7291524 0.08938,-0.4388462 0.486507,1.3931254 0.592321,1.2237114 0.178626,-0.2859911 0.804195,-1.3300624 0.864725,-1.4406934 0.09467,-0.1730359 -0.634518,1.5360984 -0.634518,2.3374044 z"
         style="fill:#008066;fill-opacity:1;fill-rule:nonzero;stroke:none" />
      <path
         sodipodi:nodetypes="ssssss"
         inkscape:connector-curvature="0"
         id="path3059"
         d="m 29,11.625147 c 0,0.72734 0.142249,1.146948 0.112559,1.316965 C 29.032108,13.402801 28.300189,10.250027 28,9.1786833 27.915129,8.8757877 28.316249,10.42741 28.840341,10.557754 29.305185,10.673363 29.870692,9.3640033 30.043793,9.2822463 30.199851,9.2085388 29,10.897808 29,11.625147 z"
         style="fill:#005544;fill-opacity:1;fill-rule:nonzero;stroke:none"
         transform="translate(0,988.36218)" />
      <path
         sodipodi:nodetypes="sssss"
         inkscape:connector-curvature="0"
         id="path3061"
         d="m 25.211997,8.621193 c -0.261897,0.070466 -1.04402,0.4779958 -1.228937,0.4779958 -0.184916,0 -1.186808,1.4608642 -1.186808,1.1896532 0,-0.271211 0.747439,-1.4919782 0.932355,-1.4919782 0.184917,0 1.95214,-0.3017928 1.48339,-0.1756708 z"
         style="fill:#00aa88;fill-opacity:1;fill-rule:nonzero;stroke:none"
         transform="translate(0,988.36218)" />
      <path
         sodipodi:nodetypes="sssss"
         inkscape:connector-curvature="0"
         id="path3063"
         d="m 26.596775,10.202842 c 0,0.258883 -0.291958,0.910692 -0.476875,0.910692 -0.184917,0 -0.571576,0.51618 -0.571576,0.257297 0,-0.258884 0.134121,-0.800206 0.319038,-0.800206 0.184917,0 0.729413,-0.6266669 0.729413,-0.367783 z"
         style="fill:#00aa88;fill-opacity:1;fill-rule:nonzero;stroke:none"
         transform="translate(0,988.36218)" />
      <path
         sodipodi:nodetypes="sssss"
         inkscape:connector-curvature="0"
         id="path3065"
         d="m 30.948797,10.31557 c -0.19719,0.07097 -0.975888,0.411032 -1.284083,0.411032 -0.308195,0 -0.664714,0.808693 -0.664714,0.599121 0,-0.209572 0.561705,-0.931891 0.8699,-0.931891 0.308195,0 1.44192,-0.208915 1.078897,-0.07826 z"
         style="fill:#005544;fill-opacity:1;fill-rule:nonzero;stroke:none"
         transform="translate(0,988.36218)" />
      <path
         sodipodi:nodetypes="sssss"
         inkscape:connector-curvature="0"
         id="path3067"
         d="m 22.511162,10.495535 c 0,0.234228 -0.470065,-0.234375 -0.691965,-0.234375 -0.2219,0 -0.842882,-0.5915476 -1.026786,-0.736607 C 20.580358,9.3572894 21.64194,9.47991 21.86384,9.47991 c 0.2219,0 0.647322,0.781397 0.647322,1.015625 z"
         style="fill:#00aa88;fill-opacity:1;fill-rule:nonzero;stroke:none"
         transform="translate(0,988.36218)" />
      <path
         sodipodi:nodetypes="sssss"
         inkscape:connector-curvature="0"
         id="path3069"
         d="m 24.916131,10.865289 c 0,0.135606 0.27205,0.78218 0.06248,0.78218 -0.209572,0 -0.616219,-0.615007 -0.616219,-0.750613 0,-0.135605 -0.761342,-0.687477 -0.55177,-0.687477 0.209572,0 1.105511,0.520305 1.105511,0.65591 z"
         style="fill:#00aa88;fill-opacity:1;fill-rule:nonzero;stroke:none"
         transform="translate(0,988.36218)" />
      <path
         sodipodi:nodetypes="sssss"
         inkscape:connector-curvature="0"
         id="path3071"
         d="m 28.724312,12.078747 c 0,0.113416 -0.30774,-0.631174 -0.492657,-0.631174 -0.184917,0 -0.571577,-0.281343 -0.571577,-0.394761 0,-0.113415 0.418228,0.189233 0.603145,0.189233 0.184917,0 0.461089,0.723285 0.461089,0.836702 z"
         style="fill:#005544;fill-opacity:1;fill-rule:nonzero;stroke:none"
         transform="translate(0,988.36218)" />
      <path
         style="fill:#00aa88;fill-opacity:1;fill-rule:nonzero;stroke:none"
         d="m 27.482841,999.76176 c -0.09952,0.79514 -0.20305,1.46464 -0.366232,1.57544 -0.13346,0.091 -0.209614,-3.71337 -0.186592,-3.7816 0.143189,-0.42435 0.309728,1.44276 0.435762,1.2878 0.212761,-0.26159 0.963151,-1.21989 1.036951,-1.32215 0.115427,-0.15994 -0.820374,1.4454 -0.919889,2.24051 z"
         id="path3084"
         inkscape:connector-curvature="0"
         sodipodi:nodetypes="ssssss" />
      <path
         style="fill:#00aa88;fill-opacity:1;fill-rule:nonzero;stroke:none"
         d="m 23.69968,998.93964 c -0.256273,0.75922 -0.491411,1.39456 -0.67343,1.47056 -0.148868,0.062 0.536077,-3.68041 0.57226,-3.74267 0.225039,-0.38721 0.0154,1.47555 0.169842,1.34888 0.26071,-0.21384 1.187339,-1.00301 1.280075,-1.08848 0.145036,-0.13366 -1.09247,1.25249 -1.348747,2.01171 z"
         id="path3086"
         inkscape:connector-curvature="0"
         sodipodi:nodetypes="ssssss" />
      <path
         style="fill:#008066;fill-opacity:1;fill-rule:nonzero;stroke:none"
         d="m 27.209083,1000.7882 c 0,0.1134 -0.30774,-0.6312 -0.492657,-0.6312 -0.184917,0 -0.571577,-0.28135 -0.571577,-0.39477 0,-0.11341 0.418228,0.18923 0.603145,0.18923 0.184917,0 0.461089,0.72324 0.461089,0.83674 z"
         id="path3088"
         inkscape:connector-curvature="0"
         sodipodi:nodetypes="sssss" />
      <path
         style="fill:#005544;fill-opacity:1;fill-rule:nonzero;stroke:none"
         d="m 28.175138,999.76458 c 0,0.25892 -0.291958,0.91072 -0.476875,0.91072 -0.184917,0 -0.571576,0.5162 -0.571576,0.2573 0,-0.2589 0.134121,-0.8002 0.319038,-0.8002 0.184917,0 0.729413,-0.62671 0.729413,-0.36782 z"
         id="path3090"
         inkscape:connector-curvature="0"
         sodipodi:nodetypes="sssss" />
      <path
         style="fill:#008066;fill-opacity:1;fill-rule:nonzero;stroke:none"
         d="m 23.80542,997.75286 c 0,0.23423 -0.470065,-0.23437 -0.691965,-0.23437 -0.2219,0 -0.842882,-0.59155 -1.026786,-0.73661 -0.212053,-0.16726 0.849529,-0.0446 1.071429,-0.0446 0.2219,0 0.647322,0.78139 0.647322,1.01562 z"
         id="path3092"
         inkscape:connector-curvature="0"
         sodipodi:nodetypes="sssss" />
      <path
         style="fill:#00d4aa;fill-opacity:1;fill-rule:nonzero;stroke:none"
         d="m 27,998.56456 c 0,0.1356 0.27205,0.78218 0.06248,0.78218 -0.209572,0 -0.616219,-0.61501 -0.616219,-0.75062 0,-0.1356 -0.761342,-0.68747 -0.55177,-0.68747 0.209572,0 1.105511,0.5203 1.105511,0.65591 z"
         id="path3094"
         inkscape:connector-curvature="0"
         sodipodi:nodetypes="sssss" />
      <path
         style="fill:#008066;fill-opacity:1;fill-rule:nonzero;stroke:none"
         d="m 24.418634,998.65972 c 0,0.25889 -0.291958,0.9107 -0.476875,0.9107 -0.184917,0 -0.571576,0.51618 -0.571576,0.25729 0,-0.25888 0.134121,-0.8002 0.319038,-0.8002 0.184917,0 0.729413,-0.62667 0.729413,-0.36779 z"
         id="path3096"
         inkscape:connector-curvature="0"
         sodipodi:nodetypes="sssss" />
      <path
         style="fill:#008066;fill-opacity:1;fill-rule:nonzero;stroke:none"
         d="m 30.037607,999.36218 c 0,0.25888 -0.291958,0.91072 -0.476875,0.91072 -0.184917,0 -0.571576,0.5162 -0.571576,0.2573 0,-0.2589 0.134121,-0.80024 0.319038,-0.80024 0.184917,0 0.729413,-0.62666 0.729413,-0.36778 z"
         id="path3098"
         inkscape:connector-curvature="0"
         sodipodi:nodetypes="sssss" />
      <path
         style="fill:#00d4aa;fill-opacity:1;fill-rule:nonzero;stroke:none"
         d="m 28.680215,997.93368 c 0,0.25888 -0.291958,0.91069 -0.476875,0.91069 -0.184917,0 -0.571576,0.51618 -0.571576,0.2573 0,-0.25889 0.134121,-0.80021 0.319038,-0.80021 0.184917,0 0.729413,-0.62667 0.729413,-0.36778 z"
         id="path3100"
         inkscape:connector-curvature="0"
         sodipodi:nodetypes="sssss" />
      <path
         style="fill:#008066;fill-opacity:1;fill-rule:nonzero;stroke:none"
         d="m 22.630323,999.31919 c 0.04173,0.23047 -0.504301,-0.14688 -0.722651,-0.10735 -0.21835,0.0395 -0.934786,-0.43192 -1.141591,-0.5419 -0.238459,-0.12681 0.827993,-0.19524 1.046343,-0.23477 0.21835,-0.0395 0.776177,0.65358 0.817905,0.88405 z"
         id="path3102"
         inkscape:connector-curvature="0"
         sodipodi:nodetypes="sssss" />
      <path
         sodipodi:nodetypes="sssss"
         inkscape:connector-curvature="0"
         id="path3104"
         d="m 25.705357,997.49313 c 0,0.1356 0.27205,0.78218 0.06248,0.78218 -0.209572,0 -0.616219,-0.61501 -0.616219,-0.75062 0,-0.1356 -0.761342,-0.68747 -0.55177,-0.68747 0.209572,0 1.105511,0.5203 1.105511,0.65591 z"
         style="fill:#008066;fill-opacity:1;fill-rule:nonzero;stroke:none" />
      <path
         sodipodi:nodetypes="sssss"
         inkscape:connector-curvature="0"
         id="path3106"
         d="m 26.476875,999.54082 c 0,0.25888 -0.291958,0.91068 -0.476875,0.91068 -0.184917,0 -0.571576,0.5162 -0.571576,0.2573 0,-0.2589 0.134121,-0.8002 0.319038,-0.8002 0.184917,0 0.729413,-0.62667 0.729413,-0.36778 z"
         style="fill:#005544;fill-opacity:1;fill-rule:nonzero;stroke:none" />
      <path
         transform="matrix(1.4036697,0,0,1.2519685,-11.622256,984.32919)"
         d="m 29.026102,15.504786 c 0,0.553533 -0.385129,1.00226 -0.860208,1.00226 -0.47508,0 -0.860208,-0.448727 -0.860208,-1.00226 0,-0.553534 0.385128,-1.002261 0.860208,-1.002261 0.475079,0 0.860208,0.448727 0.860208,1.002261 z"
         sodipodi:ry="1.0022607"
         sodipodi:rx="0.86020803"
         sodipodi:cy="15.504786"
         sodipodi:cx="28.165894"
         id="path3120"
         style="fill:#80ffb3;fill-opacity:1;fill-rule:nonzero;stroke:none"
         sodipodi:type="arc" />
      <path
         sodipodi:nodetypes="ssssss"
         inkscape:connector-curvature="0"
         id="path3125"
         d="m 27.482841,999.76176 c -0.09952,0.79514 -0.20305,1.46464 -0.366232,1.57544 -0.13346,0.091 -0.209614,-3.71337 -0.186592,-3.7816 0.143189,-0.42435 0.309728,1.44276 0.435762,1.2878 0.212761,-0.26159 0.963151,-1.21989 1.036951,-1.32215 0.115427,-0.15994 -0.820374,1.4454 -0.919889,2.24051 z"
         style="fill:#00aa88;fill-opacity:1;fill-rule:nonzero;stroke:none" />
    </g>
    <g
       id="g3934"
       transform="matrix(1.9074606,0.2848107,-0.29960064,1.8132979,277.47141,-830.1806)">
      <path
         sodipodi:nodetypes="sssss"
         inkscape:connector-curvature="0"
         id="path3140"
         d="m 36.566857,1015.6473 c 0,2.4106 -2.45392,4.4721 -3.082505,4.4721 -0.628587,0 1.422695,-1.7753 1.422695,-4.1858 0,-2.4106 -2.051282,-4.5437 -1.422695,-4.5437 0.628585,0 3.082505,1.8469 3.082505,4.2574 z"
         style="fill:#80ffb3;fill-opacity:1;fill-rule:nonzero;stroke:none" />
      <path
         sodipodi:nodetypes="sssss"
         inkscape:connector-curvature="0"
         id="path3142"
         d="m 34.325383,1020.1246 c 0,0.3923 -0.879936,1.9625 -1.335498,1.9625 -0.45556,0 -0.377605,-1.3913 -0.377605,-1.7836 0,-0.3923 0.511235,-0.9965 0.966795,-0.9965 0.455561,0 0.746308,0.4253 0.746308,0.8176 z"
         style="fill:#80ffb3;fill-opacity:1;fill-rule:nonzero;stroke:none" />
      <path
         inkscape:transform-center-y="-0.46509364"
         inkscape:connector-curvature="0"
         id="rect3144"
         d="M 33.914256,1018.537 35,1019.3622 l -0.729738,0.7966 -1.085744,-0.8252 z"
         style="fill:#00d455;fill-rule:evenodd;stroke:none" />
    </g>
    <path
       style="fill:#80ffb3;fill-opacity:1;fill-rule:nonzero;stroke:none"
       d="m 36.347109,1012.4999 c 0,1.0861 -0.679172,0.6555 -2.154961,0.6555 -1.475791,0 -4.223727,-0.7166 -4.223727,-1.8027 0,-1.0862 4.471906,-2.7861 5.947697,-2.7861 1.475789,0 0.430991,2.8471 0.430991,3.9333 z"
       id="path3997"
       inkscape:connector-curvature="0"
       sodipodi:nodetypes="sssss" />
  </g>
</svg>
