<?xml version="1.0" encoding="UTF-8" standalone="no"?>
<!-- Created with Inkscape (http://www.inkscape.org/) -->

<svg
   xmlns:dc="http://purl.org/dc/elements/1.1/"
   xmlns:cc="http://creativecommons.org/ns#"
   xmlns:rdf="http://www.w3.org/1999/02/22-rdf-syntax-ns#"
   xmlns:svg="http://www.w3.org/2000/svg"
   xmlns="http://www.w3.org/2000/svg"
   xmlns:sodipodi="http://sodipodi.sourceforge.net/DTD/sodipodi-0.dtd"
   xmlns:inkscape="http://www.inkscape.org/namespaces/inkscape"
   width="48"
   height="48"
   id="svg2"
   version="1.1"
   inkscape:version="0.48.5 r10040"
   sodipodi:docname="New document 1">
  <defs
     id="defs4" />
  <sodipodi:namedview
     id="base"
     pagecolor="#ffffff"
     bordercolor="#666666"
     borderopacity="1.0"
     inkscape:pageopacity="0.0"
     inkscape:pageshadow="2"
     inkscape:zoom="11.2"
     inkscape:cx="26.660056"
     inkscape:cy="32.3734"
     inkscape:document-units="px"
     inkscape:current-layer="layer1"
     showgrid="true"
     objecttolerance="1"
     gridtolerance="1"
     guidetolerance="1"
     inkscape:window-width="1366"
     inkscape:window-height="706"
     inkscape:window-x="-8"
     inkscape:window-y="-8"
     inkscape:window-maximized="1">
    <inkscape:grid
       type="xygrid"
       id="grid2985"
       empspacing="5"
       visible="true"
       enabled="true"
       snapvisiblegridlinesonly="true" />
  </sodipodi:namedview>
  <metadata
     id="metadata7">
    <rdf:RDF>
      <cc:Work
         rdf:about="">
        <dc:format>image/svg+xml</dc:format>
        <dc:type
           rdf:resource="http://purl.org/dc/dcmitype/StillImage" />
        <dc:title></dc:title>
      </cc:Work>
    </rdf:RDF>
  </metadata>
  <g
     inkscape:label="Layer 1"
     inkscape:groupmode="layer"
     id="layer1"
     transform="translate(0,-1004.3622)">
    <g
       id="g3788"
       transform="matrix(1.2095362,0,0,1.0877745,-6.1978236,-90.853414)">
      <path
         transform="translate(0,1004.3622)"
         d="m 36.239223,14.033621 c 0,1.046047 -5.87385,1.894036 -13.119611,1.894036 C 15.87385,15.927657 10,15.079668 10,14.033621 c 0,-1.046047 5.87385,-1.894036 13.119612,-1.894036 7.245761,0 13.119611,0.847989 13.119611,1.894036 z"
         sodipodi:ry="1.8940361"
         sodipodi:rx="13.119612"
         sodipodi:cy="14.033621"
         sodipodi:cx="23.119612"
         id="path2987"
         style="opacity:0.01000001;fill:#0055b1;fill-opacity:1;stroke:none"
         sodipodi:type="arc" />
      <path
         sodipodi:nodetypes="sssss"
         inkscape:connector-curvature="0"
         id="path3774"
         d="m 12.054951,1021.635 c -2.1483868,0.9907 7.096125,-5.9419 12.556649,-7.1428 5.460601,-1.2009 15.17198,1.309 12.79914,1.0986 -1.822281,-0.1615 -7.402396,-0.6789 -12.862998,0.522 -5.460522,1.2009 -10.551568,4.627 -12.492791,5.5222 z"
         style="opacity:0.55309735;fill:#37c2ff;fill-opacity:1;fill-rule:nonzero;stroke:none" />
      <path
         sodipodi:nodetypes="sssss"
         inkscape:connector-curvature="0"
         id="path3757"
         d="m 40.054993,1010.1193 c 2.771022,-1.3178 -9.376965,9.0531 -16.309328,10.0834 -6.932362,1.0304 -18.8708114,-5.3158 -15.9199676,-4.4745 2.2661786,0.646 9.2036936,2.6643 16.1360556,1.634 6.932363,-1.0304 13.58944,-6.0521 16.09324,-7.2429 z"
         style="fill:#42ffff;fill-opacity:1;fill-rule:nonzero;stroke:none" />
      <path
         style="opacity:0.55309735;fill:#37c2ff;fill-opacity:1;fill-rule:nonzero;stroke:none"
         d="m 17.133315,1026.7003 c -1.48167,0.8418 4.893958,-5.0495 8.659897,-6.07 3.765992,-1.0206 10.463602,1.1123 8.827134,0.9335 -1.256765,-0.1372 -5.105182,-0.5769 -8.871175,0.4436 -3.765938,1.0205 -7.277061,3.9321 -8.615856,4.6929 z"
         id="path3776"
         inkscape:connector-curvature="0"
         sodipodi:nodetypes="sssss" />
      <path
         style="fill:#42ffff;fill-opacity:1;fill-rule:nonzero;stroke:none"
         d="m 37.984962,1015.6524 c 2.18144,-1.1698 -7.251842,7.6004 -12.773375,8.7305 -5.521528,1.1302 -15.2601735,-3.3607 -12.873644,-2.8272 1.832798,0.4096 7.444739,1.6959 12.966273,0.5658 5.521529,-1.1303 10.709673,-5.4119 12.680746,-6.4691 z"
         id="path3760"
         inkscape:connector-curvature="0"
         sodipodi:nodetypes="sssss" />
      <path
         sodipodi:nodetypes="sssss"
         inkscape:connector-curvature="0"
         id="path3778"
         d="m 19.478468,1031.9211 c -1.117059,0.7472 3.689648,-4.4817 6.528861,-5.3874 2.839253,-0.9059 7.888708,0.9872 6.654943,0.8285 -0.947499,-0.1218 -3.848893,-0.512 -6.688146,0.3937 -2.839212,0.9058 -5.486314,3.4899 -6.495658,4.1652 z"
         style="opacity:0.55309735;fill:#37c2ff;fill-opacity:1;fill-rule:nonzero;stroke:none" />
      <path
         sodipodi:nodetypes="sssss"
         inkscape:connector-curvature="0"
         id="path3762"
         d="m 35.252538,1021.3459 c 1.533036,-1.088 -5.096329,7.0685 -8.97666,8.1194 -3.880328,1.0511 -10.724292,-3.1254 -9.047126,-2.6293 1.288023,0.381 5.23189,1.5772 9.112222,0.5262 3.880328,-1.0511 7.526366,-5.0331 8.911564,-6.0163 z"
         style="fill:#42ffff;fill-opacity:1;fill-rule:nonzero;stroke:none" />
      <path
         style="opacity:0.55309735;fill:#37c2ff;fill-opacity:1;fill-rule:nonzero;stroke:none"
         d="m 21.835452,1037.3622 c -0.721195,0.5478 2.382111,-3.2856 4.215164,-3.9495 1.833079,-0.6641 5.093109,0.7237 4.296566,0.6074 -0.611725,-0.089 -2.484924,-0.3754 -4.318002,0.2886 -1.833053,0.6641 -3.542075,2.5584 -4.193728,3.0535 z"
         id="path3782"
         inkscape:connector-curvature="0"
         sodipodi:nodetypes="sssss" />
      <path
         style="fill:#42ffff;fill-opacity:1;fill-rule:nonzero;stroke:none"
         d="m 33.162998,1027.6147 c 1.146085,-0.9944 -3.809975,6.4606 -6.710879,7.4211 -2.900902,0.9606 -8.017394,-2.8566 -6.763558,-2.4033 0.962915,0.3484 3.911318,1.4417 6.812223,0.481 2.900902,-0.9607 5.626651,-4.6002 6.662214,-5.4988 z"
         id="path3764"
         inkscape:connector-curvature="0"
         sodipodi:nodetypes="sssss" />
      <path
         sodipodi:nodetypes="sssss"
         inkscape:connector-curvature="0"
         id="path3784"
         d="m 24.255302,1042.2835 c -0.434715,0.5809 1.435867,-3.4839 2.540779,-4.1879 1.104927,-0.7042 3.069978,0.7674 2.589844,0.6441 -0.368729,-0.094 -1.497839,-0.3981 -2.602765,0.306 -1.104911,0.7042 -2.13506,2.7128 -2.527858,3.2378 z"
         style="opacity:0.55309735;fill:#37c2ff;fill-opacity:1;fill-rule:nonzero;stroke:none" />
      <path
         sodipodi:nodetypes="sssss"
         inkscape:connector-curvature="0"
         id="path3766"
         d="m 30.825544,1033.9072 c 0.72776,-0.7652 -2.419321,4.9711 -4.261385,5.7102 -1.842063,0.7391 -5.091018,-2.198 -4.294837,-1.8492 0.611448,0.268 2.483674,1.1093 4.325739,0.3701 1.842063,-0.7392 3.572904,-3.5397 4.230483,-4.2311 z"
         style="fill:#42ffff;fill-opacity:1;fill-rule:nonzero;stroke:none" />
      <path
         style="opacity:0.55309735;fill:#37c2ff;fill-opacity:1;fill-rule:nonzero;stroke:none"
         d="m 25.496691,1046.7009 c -0.257208,0.6018 0.849563,-3.6094 1.503309,-4.3387 0.653754,-0.7296 1.816421,0.795 1.532338,0.6673 -0.218166,-0.097 -0.886229,-0.4124 -1.539983,0.317 -0.653746,0.7296 -1.263256,2.8105 -1.495664,3.3544 z"
         id="path3786"
         inkscape:connector-curvature="0"
         sodipodi:nodetypes="sssss" />
      <path
         style="fill:#42ffff;fill-opacity:1;fill-rule:nonzero;stroke:none"
         d="m 29.545567,1038.5598 c 0.437908,-0.7161 -1.455754,4.652 -2.564161,5.3435 -1.108407,0.6917 -3.063368,-2.0568 -2.58429,-1.7304 0.36792,0.2508 1.494477,1.0381 2.602884,0.3463 1.108407,-0.6916 2.149888,-3.3123 2.545567,-3.9594 z"
         id="path3768"
         inkscape:connector-curvature="0"
         sodipodi:nodetypes="sssss" />
      <path
         sodipodi:nodetypes="sssss"
         inkscape:connector-curvature="0"
         id="path3770"
         d="m 28.750252,1042.7854 c 0.265348,-0.667 -0.88211,4.3329 -1.553746,4.9769 -0.671635,0.6442 -1.856237,-1.9156 -1.565942,-1.6116 0.22294,0.2334 0.905574,0.9667 1.577209,0.3225 0.671636,-0.6442 1.302718,-3.0851 1.542479,-3.6878 z"
         style="fill:#42ffff;fill-opacity:1;fill-rule:nonzero;stroke:none" />
      <path
         style="opacity:0.55309735;fill:#37c2ff;fill-opacity:1;fill-rule:nonzero;stroke:none"
         d="m 7.9109648,1016.0824 c -2.6900938,0.9576 8.8853872,-5.7436 15.7227602,-6.9044 6.837471,-1.1608 18.997537,1.2653 16.026395,1.0619 -2.281763,-0.1561 -9.268882,-0.6562 -16.106354,0.5046 -6.837372,1.1608 -13.212106,4.4726 -15.6428012,5.3379 z"
         id="path3772"
         inkscape:connector-curvature="0"
         sodipodi:nodetypes="sssss" />
      <path
         style="fill:#42ffff;fill-opacity:1;fill-rule:nonzero;stroke:none"
         d="m 35.252538,1021.3459 c 1.533036,-1.088 -5.096329,7.0685 -8.97666,8.1194 -3.880328,1.0511 -10.724292,-3.1254 -9.047126,-2.6293 1.288023,0.381 5.23189,1.5772 9.112222,0.5262 3.880328,-1.0511 7.526366,-5.0331 8.911564,-6.0163 z"
         id="path3780"
         inkscape:connector-curvature="0"
         sodipodi:nodetypes="sssss" />
    </g>
  </g>
</svg>
